<svg id="Layer_1" data-name="Layer 1" xmlns="http://www.w3.org/2000/svg" xmlns:xlink="http://www.w3.org/1999/xlink" viewBox="0 0 506.73 504.68"><defs><style>.cls-1,.cls-10,.cls-11,.cls-12,.cls-13,.cls-14,.cls-15,.cls-6,.cls-7,.cls-8,.cls-9{fill:none;}.cls-2{fill:#34344f;}.cls-3{clip-path:url(#clip-path);}.cls-16,.cls-17,.cls-36,.cls-4,.cls-41{fill:#5f32b7;}.cls-42,.cls-5{fill:#fff;}.cls-10,.cls-11,.cls-12,.cls-13,.cls-14,.cls-15,.cls-6,.cls-7,.cls-8,.cls-9{stroke:#34344f;stroke-linecap:round;stroke-linejoin:round;stroke-width:1.92px;}.cls-6{stroke-dasharray:0 5.67;}.cls-7{stroke-dasharray:0 5.33;}.cls-8{stroke-dasharray:0 5.71;}.cls-10{stroke-dasharray:0 5.8;}.cls-11{stroke-dasharray:0 5.66;}.cls-12{stroke-dasharray:0 5.85;}.cls-13{stroke-dasharray:0 5.78;}.cls-14{stroke-dasharray:0 5.91;}.cls-15{stroke-dasharray:0 5.78;}.cls-16,.cls-17{font-size:10.56px;}.cls-16{font-family:NunitoSans-SemiBold, Nunito Sans;}.cls-16,.cls-41,.cls-42{font-weight:700;}.cls-17,.cls-36{font-family:NunitoSans-Regular, Nunito Sans;}.cls-18{letter-spacing:-0.01em;}.cls-19{letter-spacing:0.04em;}.cls-20{letter-spacing:0em;}.cls-21{letter-spacing:-0.01em;}.cls-22{letter-spacing:0em;}.cls-23{letter-spacing:0em;}.cls-24{letter-spacing:0em;}.cls-25{letter-spacing:-0.01em;}.cls-26{letter-spacing:0.02em;}.cls-27{letter-spacing:-0.01em;}.cls-28{letter-spacing:0.02em;}.cls-29{letter-spacing:-0.02em;}.cls-30{letter-spacing:0em;}.cls-31{letter-spacing:-0.03em;}.cls-32{letter-spacing:-0.01em;}.cls-33{letter-spacing:0.02em;}.cls-34{letter-spacing:-0.01em;}.cls-35{letter-spacing:-0.01em;}.cls-36{font-size:8.4px;}.cls-37{letter-spacing:-0.01em;}.cls-38{letter-spacing:0em;}.cls-39{letter-spacing:0.04em;}.cls-40{letter-spacing:0em;}.cls-41{font-size:14.36px;}.cls-41,.cls-42{font-family:NunitoSans-Bold, Nunito Sans;}.cls-42{font-size:13.44px;}</style><clipPath id="clip-path"><rect class="cls-1" width="506.73" height="504.68"/></clipPath></defs><title>Doc Diagrams</title><path class="cls-2" d="M481.42,128.33H415.64v-6.81h65.78Zm-68.05,2.26h70.32V119.25H413.37Z"/><rect class="cls-2" x="417.91" y="123.79" width="2.27" height="2.27"/><rect class="cls-2" x="422.45" y="123.79" width="2.27" height="2.27"/><rect class="cls-2" x="426.98" y="123.79" width="2.27" height="2.27"/><polygon class="cls-2" points="481.42 187.3 415.64 187.3 415.64 132.86 413.37 132.86 413.37 189.57 483.69 189.57 483.69 132.86 481.42 132.86 481.42 187.3"/><g class="cls-3"><path class="cls-4" d="M448.53,154.41A4.54,4.54,0,1,1,444,159a4.55,4.55,0,0,1,4.53-4.54m-2.27-14.74a2.27,2.27,0,1,1,2.27,2.26,2.27,2.27,0,0,1-2.27-2.26m2.27,38.56a1.14,1.14,0,1,1,1.14-1.14,1.14,1.14,0,0,1-1.14,1.14m15.15-29.34a1.16,1.16,0,0,1,.57-.15,1.12,1.12,0,0,1,1,.57,1.13,1.13,0,1,1-1.55-.42m-.41,18.56a2.23,2.23,0,0,1,1.37-1,2,2,0,0,1,.59-.08,2.29,2.29,0,0,1,1.14.3,2.31,2.31,0,0,1,1.05,1.38,2.24,2.24,0,0,1-.22,1.72,2.29,2.29,0,0,1-1.38,1.06,2.2,2.2,0,0,1-1.72-.23,2.26,2.26,0,0,1-.83-3.1M434,169.18a2.28,2.28,0,0,1-1.06,1.37,2.21,2.21,0,0,1-1.72.23,2.24,2.24,0,0,1-1.38-1.06,2.26,2.26,0,0,1,2-3.4,2,2,0,0,1,.59.08,2.22,2.22,0,0,1,1.38,1,2.32,2.32,0,0,1,.23,1.73m-.23-18.74a1.13,1.13,0,1,1-2-1.13,1.13,1.13,0,0,1,1.54-.42,1.13,1.13,0,0,1,.42,1.55m.72-3.51a3.4,3.4,0,1,0-3.4,5.89,3.33,3.33,0,0,0,1.69.46,3.45,3.45,0,0,0,2.2-.83l7.15,4.13a6.75,6.75,0,0,0,0,4.74l-7.1,4.1a4.52,4.52,0,0,0-7.61,2,4.53,4.53,0,0,0,3.21,5.56,4.79,4.79,0,0,0,1.18.16,4.55,4.55,0,0,0,4.38-3.37,4.47,4.47,0,0,0,0-2.38l7.1-4.1a6.84,6.84,0,0,0,4.11,2.37v8.25a3.41,3.41,0,1,0,2.27,0v-8.25a6.81,6.81,0,0,0,4.1-2.37l7.1,4.1a4.57,4.57,0,0,0,0,2.38,4.51,4.51,0,0,0,2.11,2.76,4.56,4.56,0,0,0,2.26.61,4.72,4.72,0,0,0,1.18-.16,4.53,4.53,0,1,0-4.39-7.55l-7.11-4.1a6.6,6.6,0,0,0,0-4.74l7.16-4.13a3.33,3.33,0,0,0,3.89.37h0a3.4,3.4,0,1,0-3.4-5.89,3.38,3.38,0,0,0-1.63,3.56l-7.15,4.12a6.81,6.81,0,0,0-4.1-2.37V144a4.54,4.54,0,1,0-2.27,0v8.2a6.84,6.84,0,0,0-4.11,2.37l-7.14-4.12a3.39,3.39,0,0,0-1.63-3.56"/></g><rect class="cls-2" x="461.01" y="132.86" width="18.15" height="2.27"/><rect class="cls-2" x="465.55" y="137.4" width="13.61" height="2.27"/><rect class="cls-2" x="461.01" y="137.4" width="2.27" height="2.27"/><rect class="cls-2" x="476.89" y="141.93" width="2.27" height="2.27"/><rect class="cls-2" x="461.01" y="141.93" width="13.61" height="2.27"/><rect class="cls-2" x="417.91" y="178.23" width="15.88" height="2.27"/><rect class="cls-2" x="424.71" y="182.77" width="2.27" height="2.27"/><rect class="cls-2" x="431.52" y="182.77" width="2.27" height="2.27"/><rect class="cls-2" x="417.91" y="182.77" width="2.27" height="2.27"/><polygon class="cls-2" points="462.14 175.96 462.14 185.03 480.29 185.03 480.29 169.16 472.35 169.16 472.35 171.42 478.02 171.42 478.02 182.76 464.41 182.76 464.41 175.96 462.14 175.96"/><rect class="cls-2" x="466.68" y="178.23" width="9.07" height="2.27"/><rect class="cls-2" x="468.95" y="173.69" width="6.8" height="2.27"/><polygon class="cls-2" points="417.91 148.74 426.98 148.74 426.98 146.47 420.18 146.47 420.18 135.13 433.79 135.13 433.79 144.2 436.06 144.2 436.06 132.86 417.91 132.86 417.91 148.74"/><rect class="cls-2" x="422.45" y="137.4" width="9.07" height="2.27"/><rect class="cls-2" x="422.45" y="141.93" width="9.07" height="2.27"/><path class="cls-2" d="M481.42,416.32H415.64v-6.8h65.78Zm-68.05,2.27h70.32V407.25H413.37Z"/><rect class="cls-2" x="417.91" y="411.79" width="2.27" height="2.27"/><rect class="cls-2" x="422.45" y="411.79" width="2.27" height="2.27"/><rect class="cls-2" x="426.98" y="411.79" width="2.27" height="2.27"/><polygon class="cls-2" points="481.42 475.3 415.64 475.3 415.64 420.86 413.37 420.86 413.37 477.57 483.69 477.57 483.69 420.86 481.42 420.86 481.42 475.3"/><g class="cls-3"><path class="cls-4" d="M448.53,442.41A4.54,4.54,0,1,1,444,447a4.55,4.55,0,0,1,4.53-4.54m-2.27-14.74a2.27,2.27,0,1,1,2.27,2.26,2.27,2.27,0,0,1-2.27-2.26m2.27,38.56a1.14,1.14,0,1,1,1.14-1.14,1.14,1.14,0,0,1-1.14,1.14m15.15-29.34a1.16,1.16,0,0,1,.57-.15,1.12,1.12,0,0,1,1,.57,1.13,1.13,0,1,1-1.55-.42m-.41,18.56a2.23,2.23,0,0,1,1.37-1.05,2,2,0,0,1,.59-.08,2.29,2.29,0,0,1,1.14.3,2.31,2.31,0,0,1,1.05,1.38,2.24,2.24,0,0,1-.22,1.72,2.29,2.29,0,0,1-1.38,1.06,2.2,2.2,0,0,1-1.72-.23,2.26,2.26,0,0,1-.83-3.1M434,457.18a2.28,2.28,0,0,1-1.06,1.37,2.21,2.21,0,0,1-1.72.23,2.24,2.24,0,0,1-1.38-1.06,2.26,2.26,0,0,1,2-3.4,2,2,0,0,1,.59.08,2.22,2.22,0,0,1,1.38,1.05,2.32,2.32,0,0,1,.23,1.73m-.23-18.74a1.13,1.13,0,1,1-2-1.13,1.13,1.13,0,0,1,1.54-.42,1.13,1.13,0,0,1,.42,1.55m.72-3.51a3.4,3.4,0,1,0-3.4,5.89,3.33,3.33,0,0,0,1.69.46,3.45,3.45,0,0,0,2.2-.83l7.15,4.13a6.75,6.75,0,0,0,0,4.74l-7.1,4.1a4.52,4.52,0,0,0-7.61,2,4.53,4.53,0,0,0,3.21,5.56,4.79,4.79,0,0,0,1.18.16,4.55,4.55,0,0,0,4.38-3.37,4.47,4.47,0,0,0,0-2.38l7.1-4.1a6.84,6.84,0,0,0,4.11,2.37v8.25a3.41,3.41,0,1,0,2.27,0v-8.25a6.81,6.81,0,0,0,4.1-2.37l7.1,4.1a4.57,4.57,0,0,0,0,2.38,4.51,4.51,0,0,0,2.11,2.76,4.56,4.56,0,0,0,2.26.61,4.72,4.72,0,0,0,1.18-.16,4.53,4.53,0,1,0-4.39-7.55l-7.11-4.1a6.6,6.6,0,0,0,0-4.74l7.16-4.13a3.33,3.33,0,0,0,3.89.37h0a3.4,3.4,0,1,0-3.4-5.89,3.38,3.38,0,0,0-1.63,3.56l-7.15,4.12a6.81,6.81,0,0,0-4.1-2.37V432a4.54,4.54,0,1,0-2.27,0v8.2a6.84,6.84,0,0,0-4.11,2.37l-7.14-4.12a3.39,3.39,0,0,0-1.63-3.56"/></g><rect class="cls-2" x="461.01" y="420.86" width="18.15" height="2.27"/><rect class="cls-2" x="465.55" y="425.4" width="13.61" height="2.27"/><rect class="cls-2" x="461.01" y="425.4" width="2.27" height="2.27"/><rect class="cls-2" x="476.89" y="429.93" width="2.27" height="2.27"/><rect class="cls-2" x="461.01" y="429.93" width="13.61" height="2.27"/><rect class="cls-2" x="417.91" y="466.23" width="15.88" height="2.27"/><rect class="cls-2" x="424.71" y="470.76" width="2.27" height="2.27"/><rect class="cls-2" x="431.52" y="470.76" width="2.27" height="2.27"/><rect class="cls-2" x="417.91" y="470.76" width="2.27" height="2.27"/><polygon class="cls-2" points="462.14 463.96 462.14 473.03 480.29 473.03 480.29 457.15 472.35 457.15 472.35 459.42 478.02 459.42 478.02 470.76 464.41 470.76 464.41 463.96 462.14 463.96"/><rect class="cls-2" x="466.68" y="466.23" width="9.07" height="2.27"/><rect class="cls-2" x="468.95" y="461.69" width="6.8" height="2.27"/><polygon class="cls-2" points="417.91 436.74 426.98 436.74 426.98 434.47 420.18 434.47 420.18 423.13 433.79 423.13 433.79 432.2 436.06 432.2 436.06 420.86 417.91 420.86 417.91 436.74"/><rect class="cls-2" x="422.45" y="425.4" width="9.07" height="2.27"/><rect class="cls-2" x="422.45" y="429.93" width="9.07" height="2.27"/><g class="cls-3"><path class="cls-2" d="M228.89,136.38a2.82,2.82,0,1,1,2.81-2.81,2.82,2.82,0,0,1-2.81,2.81m0-7.87a5.06,5.06,0,1,0,5.07,5.06,5.06,5.06,0,0,0-5.07-5.06"/><path class="cls-2" d="M274.48,131.88a1.13,1.13,0,1,1-1.13-1.13,1.14,1.14,0,0,1,1.13,1.13"/><path class="cls-2" d="M270,131.88a1.13,1.13,0,1,1-1.12-1.13,1.13,1.13,0,0,1,1.12,1.13"/><path class="cls-2" d="M276.72,135.26a1.12,1.12,0,1,1-1.12-1.13,1.12,1.12,0,0,1,1.12,1.13"/><path class="cls-2" d="M272.22,135.26a1.13,1.13,0,1,1-1.13-1.13,1.12,1.12,0,0,1,1.13,1.13"/><path class="cls-2" d="M265.47,131.88a1.13,1.13,0,1,1-1.12-1.13,1.13,1.13,0,0,1,1.12,1.13"/><path class="cls-2" d="M267.72,135.26a1.13,1.13,0,1,1-1.13-1.13,1.12,1.12,0,0,1,1.13,1.13"/><path class="cls-2" d="M261,131.88a1.13,1.13,0,1,1-1.13-1.13,1.13,1.13,0,0,1,1.13,1.13"/><path class="cls-2" d="M263.22,135.26a1.13,1.13,0,1,1-1.13-1.13,1.13,1.13,0,0,1,1.13,1.13"/><path class="cls-2" d="M256.47,131.88a1.13,1.13,0,1,1-1.13-1.13,1.14,1.14,0,0,1,1.13,1.13"/><path class="cls-2" d="M258.72,135.26a1.13,1.13,0,1,1-1.13-1.13,1.13,1.13,0,0,1,1.13,1.13"/><path class="cls-2" d="M222.26,143.13a2.93,2.93,0,0,1-2.93-2.93V126.94a2.93,2.93,0,0,1,2.93-2.93h57.16a2.93,2.93,0,0,1,2.93,2.93V140.2a2.93,2.93,0,0,1-2.93,2.93Zm60.09,5.19v13.26a2.94,2.94,0,0,1-2.93,2.94H222.26a2.94,2.94,0,0,1-2.93-2.94V148.32a2.93,2.93,0,0,1,2.93-2.93h57.16a2.93,2.93,0,0,1,2.93,2.93m0,21.39V183a2.93,2.93,0,0,1-2.93,2.93H222.26a2.92,2.92,0,0,1-2.93-2.93V169.71a2.94,2.94,0,0,1,2.93-2.94h57.16a2.94,2.94,0,0,1,2.93,2.94m2.25-29.51V126.94a5.19,5.19,0,0,0-5.18-5.19H222.26a5.2,5.2,0,0,0-5.19,5.19V140.2a5.16,5.16,0,0,0,2,4.06,5.16,5.16,0,0,0-2,4.06v13.26a5.14,5.14,0,0,0,2,4.06,5.18,5.18,0,0,0-2,4.07V183a5.19,5.19,0,0,0,5.19,5.18h57.16A5.19,5.19,0,0,0,284.6,183V169.71a5.18,5.18,0,0,0-2-4.07,5.14,5.14,0,0,0,2-4.06V148.32a5.16,5.16,0,0,0-2-4.06,5.16,5.16,0,0,0,2-4.06"/><path class="cls-2" d="M228.89,173.53a2.81,2.81,0,1,1-2.82,2.81,2.81,2.81,0,0,1,2.82-2.81m0,7.87a5.07,5.07,0,1,0-5.06-5.06,5.07,5.07,0,0,0,5.06,5.06"/><path class="cls-2" d="M274.48,174.65a1.13,1.13,0,1,1-1.13-1.12,1.13,1.13,0,0,1,1.13,1.12"/><path class="cls-2" d="M270,174.65a1.13,1.13,0,1,1-1.12-1.12,1.12,1.12,0,0,1,1.12,1.12"/><path class="cls-2" d="M276.72,178a1.12,1.12,0,1,1-1.12-1.13,1.12,1.12,0,0,1,1.12,1.13"/><path class="cls-2" d="M272.22,178a1.13,1.13,0,1,1-1.13-1.13,1.12,1.12,0,0,1,1.13,1.13"/><path class="cls-2" d="M265.47,174.65a1.13,1.13,0,1,1-1.12-1.12,1.12,1.12,0,0,1,1.12,1.12"/><path class="cls-2" d="M267.72,178a1.13,1.13,0,1,1-1.13-1.13,1.12,1.12,0,0,1,1.13,1.13"/><path class="cls-2" d="M261,174.65a1.13,1.13,0,1,1-1.13-1.12,1.12,1.12,0,0,1,1.13,1.12"/><path class="cls-2" d="M263.22,178a1.13,1.13,0,1,1-1.13-1.13,1.13,1.13,0,0,1,1.13,1.13"/><path class="cls-2" d="M256.47,174.65a1.13,1.13,0,1,1-1.13-1.12,1.13,1.13,0,0,1,1.13,1.12"/><path class="cls-2" d="M258.72,178a1.13,1.13,0,1,1-1.13-1.13,1.13,1.13,0,0,1,1.13,1.13"/><path class="cls-2" d="M33.82,124.92a3.4,3.4,0,0,1,3.4-3.4H66.71a3.4,3.4,0,0,1,3.4,3.4v1.14H33.82Zm0,3.4H70.11v2.27h2.27v-5.67a5.68,5.68,0,0,0-5.67-5.67H37.22a5.68,5.68,0,0,0-5.67,5.67v5.67h2.27Z"/><path class="cls-2" d="M33.82,180.5H70.11v3.4a3.4,3.4,0,0,1-3.4,3.4H37.22a3.4,3.4,0,0,1-3.4-3.4Zm-2.27,3.4a5.67,5.67,0,0,0,5.67,5.67H66.71a5.67,5.67,0,0,0,5.67-5.67v-5.67H31.55Z"/></g><rect class="cls-2" x="46.29" y="182.77" width="11.34" height="2.27"/><g class="cls-3"><path class="cls-4" d="M36.24,131s-7.2,0-7.2,7.2V169.6s0,7.2,7.2,7.2H67.69s7.2,0,7.2-7.2V138.15s0-7.2-7.2-7.2Z"/><path class="cls-5" d="M52,148.72a4.92,4.92,0,1,0,5,5,5,5,0,0,0-5-5m-5.63,7.38a7,7,0,0,0-3.53,1.35c-1.46,1.3-1.57,2.67,0,3.93.07.05.15.09.21.14A10.05,10.05,0,0,0,47.16,163a26,26,0,0,0,6.48.4,20.42,20.42,0,0,0,5.54-1.05,5.74,5.74,0,0,0,2.54-1.64,1.86,1.86,0,0,0,.18-2.39c-1-1.46-2.55-1.95-4.3-2.31L57,157.23c.46.14.79.22,1.1.35a19.05,19.05,0,0,1,2.15,1c.7.41.69,1,.06,1.52,0,0-.12,0-.16,0a8.48,8.48,0,0,0-3.88-1.44,2,2,0,0,0-1.33.16,6.12,6.12,0,0,1-5.76.06,2.41,2.41,0,0,0-1.31-.23,9.07,9.07,0,0,0-3.71,1.24,2.53,2.53,0,0,1-.51.22c-.58-.65-.58-1.1.14-1.52a20.27,20.27,0,0,1,2.32-1.05c.28-.12.56-.21.95-.35l-.66-1.06m5.55,12c-.29-.07-.57-.13-.84-.22l-13.66-5-.4-.16A1.06,1.06,0,0,1,36.5,161c.32-.52.66-1,1-1.55L48,143.9c.91-1.35,1.8-2.71,2.73-4s1.65-1.28,2.54,0c2.16,3.2,4.31,6.42,6.47,9.63s4.37,6.45,6.56,9.68c.36.53.72,1.07,1.06,1.61.54.87.38,1.5-.56,1.9-1.26.53-2.56,1-3.84,1.45l-7.23,2.66c-1,.35-1.92.71-2.89,1a7.24,7.24,0,0,1-.92.22"/><path class="cls-2" d="M33.82,412.92a3.4,3.4,0,0,1,3.4-3.4H66.71a3.4,3.4,0,0,1,3.4,3.4v1.14H33.82Zm0,3.4H70.11v2.27h2.27v-5.67a5.68,5.68,0,0,0-5.67-5.67H37.22a5.68,5.68,0,0,0-5.67,5.67v5.67h2.27Z"/><path class="cls-2" d="M33.82,468.5H70.11v3.4a3.4,3.4,0,0,1-3.4,3.4H37.22a3.4,3.4,0,0,1-3.4-3.4Zm-2.27,3.4a5.67,5.67,0,0,0,5.67,5.67H66.71a5.67,5.67,0,0,0,5.67-5.67v-5.67H31.55Z"/></g><rect class="cls-2" x="46.29" y="470.76" width="11.34" height="2.27"/><g class="cls-3"><path class="cls-4" d="M36.24,419s-7.2,0-7.2,7.2V457.6s0,7.2,7.2,7.2H67.69s7.2,0,7.2-7.2V426.15s0-7.2-7.2-7.2Z"/><path class="cls-5" d="M52,436.72a4.92,4.92,0,1,0,5,5,5,5,0,0,0-5-5m-5.63,7.38a7,7,0,0,0-3.53,1.35c-1.46,1.3-1.57,2.67,0,3.93l.21.14A10.05,10.05,0,0,0,47.16,451a26,26,0,0,0,6.48.4,20.42,20.42,0,0,0,5.54-1.05,5.74,5.74,0,0,0,2.54-1.64,1.86,1.86,0,0,0,.18-2.39c-1-1.46-2.55-2-4.3-2.31L57,445.23c.46.14.79.22,1.1.35a19.05,19.05,0,0,1,2.15,1c.7.41.69,1,.06,1.52,0,0-.12,0-.16,0a8.48,8.48,0,0,0-3.88-1.44,2,2,0,0,0-1.33.16,6.12,6.12,0,0,1-5.76.06,2.41,2.41,0,0,0-1.31-.23,9.07,9.07,0,0,0-3.71,1.24,2.53,2.53,0,0,1-.51.22c-.58-.65-.58-1.1.14-1.52a20.27,20.27,0,0,1,2.32-1.05c.28-.12.56-.21.95-.35l-.66-1.06m5.55,12c-.29-.07-.57-.13-.84-.22l-13.66-5-.4-.16A1.06,1.06,0,0,1,36.5,449c.32-.52.66-1,1-1.55L48,431.9c.91-1.35,1.8-2.71,2.73-4s1.65-1.28,2.54,0c2.16,3.2,4.31,6.42,6.47,9.63s4.37,6.45,6.56,9.68c.36.53.72,1.07,1.06,1.61.54.87.38,1.5-.56,1.9-1.26.53-2.56,1-3.84,1.45l-7.23,2.66c-1,.35-1.92.71-2.89,1a7.24,7.24,0,0,1-.92.22"/><line class="cls-6" x1="448.53" y1="107.89" x2="448.53" y2="48.33"/><path class="cls-7" d="M446.65,40.63a5.67,5.67,0,0,0-2.22-1.44"/><line class="cls-8" x1="436.1" y1="38.77" x2="290.52" y2="38.77"/><path class="cls-9" d="M287.67,38.77h0m154.14,0h0m6.72,6.72h0m0,68.07h0"/><polygon class="cls-2" points="283.26 38.77 289.37 44.45 289.37 33.1 283.26 38.77"/><line class="cls-6" x1="448.53" y1="395.89" x2="448.53" y2="336.33"/><path class="cls-7" d="M446.65,328.63a5.67,5.67,0,0,0-2.22-1.44"/><line class="cls-8" x1="436.1" y1="326.77" x2="290.52" y2="326.77"/><path class="cls-9" d="M287.67,326.77h0m154.14,0h0m6.72,6.72h0m0,68.07h0"/><polygon class="cls-2" points="283.26 326.77 289.37 332.45 289.37 321.1 283.26 326.77"/><line class="cls-10" x1="50.95" y1="103.35" x2="50.95" y2="48.3"/><path class="cls-7" d="M52.83,40.53a5.54,5.54,0,0,1,2.22-1.43"/><line class="cls-11" x1="63.32" y1="38.68" x2="213.29" y2="38.68"/><path class="cls-9" d="M216.12,38.68h0m-158.45,0h0M51,45.4h0m0,63.75h0"/><polygon class="cls-2" points="50.95 113.56 45.27 107.45 56.62 107.45 50.95 113.56"/><line class="cls-10" x1="50.95" y1="391.35" x2="50.95" y2="336.3"/><path class="cls-7" d="M52.83,328.53a5.54,5.54,0,0,1,2.22-1.43"/><line class="cls-11" x1="63.32" y1="326.68" x2="213.29" y2="326.68"/><path class="cls-9" d="M216.12,326.68h0m-158.45,0h0M51,333.4h0m0,63.75h0"/><polygon class="cls-2" points="50.95 401.56 45.27 395.45 56.62 395.45 50.95 401.56"/></g><line class="cls-12" x1="94.71" y1="154.95" x2="202.97" y2="154.95"/><path class="cls-9" d="M205.89,155h0m-117,0h0"/><polygon class="cls-2" points="210.3 154.95 204.19 149.28 204.19 160.63 210.3 154.95"/><line class="cls-13" x1="94.64" y1="442.95" x2="398.31" y2="442.95"/><path class="cls-9" d="M401.21,443h0M88.86,443h0"/><polygon class="cls-2" points="405.62 442.95 399.51 437.28 399.51 448.63 405.62 442.95"/><line class="cls-14" x1="398.18" y1="166.95" x2="294.81" y2="166.95"/><path class="cls-9" d="M291.86,167h0m112.23,0h0"/><polygon class="cls-2" points="408.5 166.95 402.39 161.28 402.39 172.63 408.5 166.95"/><line class="cls-15" x1="300.61" y1="142.95" x2="401.77" y2="142.95"/><path class="cls-9" d="M404.66,143h0m-109.83,0h0"/><polygon class="cls-2" points="290.42 142.95 296.52 148.63 296.52 137.28 290.42 142.95"/><text class="cls-16" transform="translate(230.08 157.84)">Chasqui</text><text class="cls-17" transform="translate(417.14 202.39)">3<tspan class="cls-18" x="6.34" y="0">r</tspan><tspan x="9.96" y="0">d pa</tspan><tspan class="cls-19" x="30.57" y="0">r</tspan><tspan class="cls-20" x="34.7" y="0">t</tspan><tspan x="38.34" y="0">y app</tspan></text><text class="cls-17" transform="translate(406.44 212.95)"><tspan class="cls-21">(</tspan><tspan class="cls-22" x="3.25" y="0">des</tspan><tspan class="cls-23" x="20.03" y="0">k</tspan><tspan x="25.28" y="0">top b</tspan><tspan class="cls-18" x="49.75" y="0">r</tspan><tspan class="cls-24" x="53.37" y="0">o</tspan><tspan class="cls-25" x="59.18" y="0">w</tspan><tspan x="67.97" y="0">se</tspan><tspan class="cls-26" x="78.61" y="0">r</tspan><tspan x="82.51" y="0">)</tspan></text><text class="cls-17" transform="translate(417.14 490.39)">3<tspan class="cls-18" x="6.34" y="0">r</tspan><tspan x="9.96" y="0">d pa</tspan><tspan class="cls-19" x="30.57" y="0">r</tspan><tspan class="cls-20" x="34.7" y="0">t</tspan><tspan x="38.34" y="0">y app</tspan></text><text class="cls-17" transform="translate(409.48 500.95)">(mobile b<tspan class="cls-18" x="43.65" y="0">r</tspan><tspan class="cls-27" x="47.28" y="0">o</tspan><tspan class="cls-25" x="53.08" y="0">w</tspan><tspan x="61.88" y="0">se</tspan><tspan class="cls-28" x="72.51" y="0">r</tspan><tspan class="cls-22" x="76.41" y="0">)</tspan></text><text class="cls-17" transform="translate(182.63 457.5)">ap<tspan class="cls-29" x="11.74" y="0">p.</tspan><tspan x="19.97" y="0">co</tspan><tspan class="cls-25" x="30.89" y="0">m</tspan><tspan x="39.79" y="0">?acces</tspan><tspan class="cls-30" x="70.81" y="0">s</tspan><tspan class="cls-31" x="75.84" y="0">_</tspan><tspan x="80.8" y="0">to</tspan><tspan class="cls-32" x="90.25" y="0">k</tspan><tspan x="95.45" y="0">en=J</tspan><tspan class="cls-33" x="116.79" y="0">W</tspan><tspan x="128.62" y="0">T</tspan></text><text class="cls-17" transform="translate(10.56 494.09)"><tspan class="cls-34">{</tspan><tspan class="cls-22" x="3.63" y="0">data, signatu</tspan><tspan class="cls-35" x="64.52" y="0">r</tspan><tspan class="cls-21" x="68.15" y="0">e</tspan><tspan x="73.65" y="0">}</tspan></text><text class="cls-36" transform="translate(237.01 324.61)">Open in </text><text class="cls-36" transform="translate(268.57 324.61)"> </text><text class="cls-36" transform="translate(239.43 335.17)">u<tspan class="cls-37" x="4.71" y="0">P</tspan><tspan class="cls-38" x="10" y="0">o</tspan><tspan class="cls-39" x="14.67" y="0">r</tspan><tspan class="cls-40" x="17.96" y="0">t</tspan><tspan x="20.83" y="0">?</tspan></text><text class="cls-41" transform="translate(223.01 305.19)">!</text><g class="cls-3"><path class="cls-4" d="M348.57,28.12A10.56,10.56,0,1,0,338,17.56a10.56,10.56,0,0,0,10.56,10.56"/></g><text class="cls-42" transform="translate(344.54 22.36)">1</text><g class="cls-3"><path class="cls-4" d="M384.14,316.12a10.56,10.56,0,1,0-10.56-10.56,10.56,10.56,0,0,0,10.56,10.56"/></g><text class="cls-42" transform="translate(380.1 310.36)">1</text><g class="cls-3"><path class="cls-4" d="M348.57,136.83A10.56,10.56,0,1,0,338,126.27a10.56,10.56,0,0,0,10.56,10.56"/></g><text class="cls-42" transform="translate(344.73 131.06)">2</text><g class="cls-3"><path class="cls-4" d="M251.87,290.67a10.56,10.56,0,1,0-10.56-10.56,10.56,10.56,0,0,0,10.56,10.56"/></g><text class="cls-42" transform="translate(248.03 284.91)">2</text><g class="cls-3"><path class="cls-4" d="M145,28.12a10.56,10.56,0,1,0-10.56-10.56A10.56,10.56,0,0,0,145,28.12"/></g><text class="cls-42" transform="translate(141.18 22.36)">3</text><g class="cls-3"><path class="cls-4" d="M120.62,316.12a10.56,10.56,0,1,0-10.56-10.56,10.56,10.56,0,0,0,10.56,10.56"/></g><text class="cls-42" transform="translate(116.78 310.36)">3</text><g class="cls-3"><path class="cls-4" d="M145,148.83a10.56,10.56,0,1,0-10.56-10.56A10.56,10.56,0,0,0,145,148.83"/></g><text class="cls-42" transform="translate(140.22 143.06)">4</text><g class="cls-3"><path class="cls-4" d="M10.56,452.15A10.56,10.56,0,1,0,0,441.59a10.56,10.56,0,0,0,10.56,10.56"/></g><text class="cls-42" transform="translate(5.76 446.39)">4</text><g class="cls-3"><path class="cls-4" d="M348.57,195A10.56,10.56,0,1,0,338,184.47,10.56,10.56,0,0,0,348.57,195"/></g><text class="cls-42" transform="translate(344.73 189.27)">5</text><g class="cls-3"><path class="cls-4" d="M253,436.83a10.56,10.56,0,1,0-10.56-10.56A10.56,10.56,0,0,0,253,436.83"/></g><text class="cls-42" transform="translate(249.15 431.06)">5</text><path class="cls-2" d="M277.92,16.24H223.76v-5.6h54.16Zm-56,1.87h57.9V8.77h-57.9Z"/><rect class="cls-2" x="225.63" y="12.51" width="1.87" height="1.87"/><rect class="cls-2" x="229.36" y="12.51" width="1.87" height="1.87"/><rect class="cls-2" x="233.1" y="12.51" width="1.87" height="1.87"/><polygon class="cls-2" points="277.92 64.8 223.76 64.8 223.76 19.98 221.89 19.98 221.89 66.67 279.79 66.67 279.79 19.98 277.92 19.98 277.92 64.8"/><path class="cls-4" d="M271.68,36.22h-12.5V23.63h12.5Zm0,23.08H244.59V44.61H230V38.32h14.59V23.63h12.5V38.32h14.59Zm-29.18,0H230V46.71h12.5ZM230,23.63h12.5V36.22H230Zm-2.09,37.76h45.86V21.53H227.91Z"/><path class="cls-4" d="M234.16,27.83h4.17V32h-4.17Zm-2.08,6.29h8.34V25.73h-8.34Z"/><path class="cls-4" d="M238.33,55.1h-4.17V50.9h4.17Zm2.09-6.29h-8.34V57.2h8.34Z"/><path class="cls-4" d="M267.51,32h-4.17V27.83h4.17Zm2.09-6.29h-8.34v8.39h8.34Z"/><polygon class="cls-4" points="250.84 32.02 248.75 32.02 248.75 25.73 246.67 25.73 246.67 34.12 250.84 34.12 250.84 32.02"/><polygon class="cls-4" points="252.92 34.12 255.01 34.12 255.01 25.73 250.84 25.73 250.84 27.82 252.92 27.82 252.92 34.12"/><polygon class="cls-4" points="248.75 42.51 250.84 42.51 250.84 36.22 246.67 36.22 246.67 38.32 248.75 38.32 248.75 42.51"/><polygon class="cls-4" points="255.01 36.22 252.92 36.22 252.92 46.71 261.26 46.71 261.26 44.61 255.01 44.61 255.01 36.22"/><polygon class="cls-4" points="265.43 48.81 263.35 48.81 263.35 53 267.51 53 267.51 57.2 269.6 57.2 269.6 50.9 265.43 50.9 265.43 48.81"/><rect class="cls-4" x="263.34" y="44.61" width="6.25" height="2.1"/><polygon class="cls-4" points="250.84 55.1 246.67 55.1 246.67 57.2 252.92 57.2 252.92 53 250.84 53 250.84 55.1"/><polygon class="cls-4" points="250.84 50.9 255.01 50.9 255.01 57.2 257.09 57.2 257.09 48.81 250.84 48.81 250.84 50.9"/><rect class="cls-4" x="259.18" y="48.81" width="2.08" height="8.39"/><rect class="cls-4" x="232.08" y="40.41" width="12.51" height="2.1"/><rect class="cls-4" x="257.09" y="40.41" width="8.34" height="2.1"/><rect class="cls-4" x="267.51" y="40.41" width="2.08" height="2.1"/><rect class="cls-4" x="246.67" y="44.61" width="2.08" height="8.39"/><rect class="cls-4" x="250.84" y="21.53" width="22.93" height="39.86"/><g class="cls-3"><path class="cls-5" d="M263,27.22a4.72,4.72,0,0,0-4.7,4.71l0,9.7a4.67,4.67,0,0,0,4,4.63h0a4.9,4.9,0,0,0,.67.07,4.77,4.77,0,0,0,.67-.06V43.51a2.49,2.49,0,0,1-.67.13,2,2,0,0,1-2-2l0-9.71a2,2,0,0,1,2-2,2,2,0,0,1,2,2v4a6,6,0,0,1,2.68,1.89V31.91A4.68,4.68,0,0,0,263,27.22m.65,9.76v0a3.49,3.49,0,0,0-1.34,0v2.75a2.15,2.15,0,0,1,.67-.13,2,2,0,0,1,2,2L265,51a2,2,0,1,1-4,0v-3.7a5.92,5.92,0,0,1-2.68-1.9V51a4.69,4.69,0,1,0,9.38,0l0-9.39a4.69,4.69,0,0,0-4-4.63"/><path class="cls-2" d="M237.36,302.05H272.7a5.57,5.57,0,0,1,5.49,5.7v35.82a5.57,5.57,0,0,1-5.49,5.7H230.3a5.57,5.57,0,0,1-5.5-5.7V313.45a12.74,12.74,0,0,0,12.44-11.37l.12,0M224.8,289a11.4,11.4,0,1,1-11,11.39,11.18,11.18,0,0,1,11-11.39m0-1.63a13,13,0,0,0-1.57,25.92.29.29,0,0,0,0,.13v30.12a7.21,7.21,0,0,0,7.07,7.33h42.4a7.2,7.2,0,0,0,7.06-7.33V307.75a7.2,7.2,0,0,0-7.06-7.33H237.36a12.81,12.81,0,0,0-12.56-13"/></g></svg>