<svg id="Layer_1" data-name="Layer 1" xmlns="http://www.w3.org/2000/svg" xmlns:xlink="http://www.w3.org/1999/xlink" viewBox="0 0 556.94 536.29"><defs><style>.cls-1,.cls-10,.cls-11,.cls-12,.cls-13,.cls-14,.cls-15,.cls-16,.cls-17,.cls-18,.cls-19,.cls-20,.cls-21,.cls-6,.cls-7,.cls-8,.cls-9{fill:none;}.cls-2{fill:#34344f;}.cls-3{clip-path:url(#clip-path);}.cls-22,.cls-23,.cls-28,.cls-38,.cls-4{fill:#5f32b7;}.cls-34,.cls-5{fill:#fff;}.cls-10,.cls-11,.cls-12,.cls-13,.cls-14,.cls-15,.cls-16,.cls-17,.cls-18,.cls-19,.cls-20,.cls-21,.cls-6,.cls-7,.cls-8,.cls-9{stroke:#34344f;stroke-linecap:round;stroke-linejoin:round;stroke-width:1.92px;}.cls-6{stroke-dasharray:0 5.67;}.cls-7{stroke-dasharray:0 5.33;}.cls-8{stroke-dasharray:0 5.71;}.cls-10{stroke-dasharray:0 5.67;}.cls-11{stroke-dasharray:0 5.55;}.cls-12{stroke-dasharray:0 5.71;}.cls-13{stroke-dasharray:0 5.86;}.cls-14{stroke-dasharray:0 5.78;}.cls-15{stroke-dasharray:0 5.81;}.cls-16{stroke-dasharray:0 5.73;}.cls-17{stroke-dasharray:0 5.8;}.cls-18{stroke-dasharray:0 5.66;}.cls-19{stroke-dasharray:0 5.85;}.cls-20{stroke-dasharray:0 5.73;}.cls-21{stroke-dasharray:0 5.64;}.cls-22,.cls-23{font-size:10.56px;}.cls-22,.cls-38{font-family:NunitoSans-SemiBold, Nunito Sans;}.cls-22,.cls-34,.cls-38{font-weight:700;}.cls-23,.cls-28{font-family:NunitoSans-Regular, Nunito Sans;}.cls-24{letter-spacing:-0.01em;}.cls-25{letter-spacing:0.04em;}.cls-26{letter-spacing:0em;}.cls-27{letter-spacing:-0.01em;}.cls-28{font-size:7.68px;}.cls-29{letter-spacing:-0.01em;}.cls-30{letter-spacing:-0.01em;}.cls-31{letter-spacing:0em;}.cls-32{letter-spacing:0.02em;}.cls-33{letter-spacing:-0.01em;}.cls-34{font-size:13.44px;font-family:NunitoSans-Bold, Nunito Sans;}.cls-35{letter-spacing:-0.06em;}.cls-36{letter-spacing:-0.04em;}.cls-37{letter-spacing:-0.02em;}.cls-38{font-size:6.97px;}.cls-39{letter-spacing:0em;}.cls-40{letter-spacing:0em;}.cls-41{letter-spacing:0em;}.cls-42{letter-spacing:-0.01em;}.cls-43{fill:#231f20;}</style><clipPath id="clip-path"><rect class="cls-1" width="556.94" height="536.29"/></clipPath></defs><title>Doc Diagrams</title><path class="cls-2" d="M452.39,128.55H386.6v-6.8h65.79Zm-68.06,2.27h70.32V119.48H384.33Z"/><rect class="cls-2" x="388.87" y="124.02" width="2.27" height="2.27"/><rect class="cls-2" x="393.41" y="124.02" width="2.27" height="2.27"/><rect class="cls-2" x="397.95" y="124.02" width="2.27" height="2.27"/><polygon class="cls-2" points="452.38 187.53 386.6 187.53 386.6 133.09 384.33 133.09 384.33 189.8 454.65 189.8 454.65 133.09 452.38 133.09 452.38 187.53"/><g class="cls-3"><path class="cls-4" d="M419.49,154.64a4.54,4.54,0,1,1-4.53,4.54,4.54,4.54,0,0,1,4.53-4.54m-2.26-14.74a2.27,2.27,0,1,1,2.26,2.26,2.26,2.26,0,0,1-2.26-2.26m2.26,38.56a1.14,1.14,0,1,1,1.14-1.14,1.14,1.14,0,0,1-1.14,1.14m15.15-29.34a1.16,1.16,0,0,1,.57-.15,1.14,1.14,0,0,1,.57,2.12,1.14,1.14,0,0,1-1.14-2m-.41,18.56a2.22,2.22,0,0,1,1.38-1.05,2,2,0,0,1,.59-.08,2.24,2.24,0,0,1,2.18,1.68,2.27,2.27,0,1,1-4.15-.55M405,169.4a2.27,2.27,0,0,1-1.06,1.38,2.2,2.2,0,0,1-1.72.23,2.27,2.27,0,0,1,.58-4.46,2.46,2.46,0,0,1,.6.07,2.28,2.28,0,0,1,1.37,1.06,2.3,2.3,0,0,1,.23,1.72m-.23-18.73a1.13,1.13,0,1,1-2-1.13,1.12,1.12,0,0,1,1-.57,1.18,1.18,0,0,1,.57.15,1.14,1.14,0,0,1,.41,1.55m.72-3.51a3.4,3.4,0,1,0-3.4,5.89,3.35,3.35,0,0,0,1.69.45,3.44,3.44,0,0,0,2.2-.82l7.15,4.13a6.72,6.72,0,0,0,0,4.73l-7.1,4.11a4.53,4.53,0,1,0-4.4,7.55,4.77,4.77,0,0,0,1.18.15,4.43,4.43,0,0,0,2.26-.61,4.46,4.46,0,0,0,2.09-5.13l7.1-4.1a6.84,6.84,0,0,0,4.11,2.37v8.25a3.41,3.41,0,1,0,2.27,0v-8.25a6.78,6.78,0,0,0,4.1-2.37l7.1,4.1a4.57,4.57,0,0,0,0,2.38,4.51,4.51,0,0,0,2.11,2.76,4.56,4.56,0,0,0,2.26.61,4.8,4.8,0,0,0,1.19-.16,4.53,4.53,0,0,0,2.75-2.11,4.53,4.53,0,0,0-5.1-6.65,4.37,4.37,0,0,0-2,1.21l-7.11-4.1a6.69,6.69,0,0,0,.44-2.37,6.87,6.87,0,0,0-.43-2.37l7.15-4.13a3.44,3.44,0,0,0,2.2.82,3.35,3.35,0,0,0,1.69-.45h0a3.4,3.4,0,1,0-5-2.33l-7.15,4.12a6.78,6.78,0,0,0-4.1-2.37v-8.2a4.54,4.54,0,1,0-2.27,0v8.2a6.84,6.84,0,0,0-4.11,2.37l-7.14-4.12a3.39,3.39,0,0,0-1.63-3.56"/></g><rect class="cls-2" x="431.97" y="133.09" width="18.15" height="2.27"/><rect class="cls-2" x="436.51" y="137.63" width="13.61" height="2.27"/><rect class="cls-2" x="431.97" y="137.63" width="2.27" height="2.27"/><rect class="cls-2" x="447.85" y="142.16" width="2.27" height="2.27"/><rect class="cls-2" x="431.97" y="142.16" width="13.61" height="2.27"/><rect class="cls-2" x="388.87" y="178.46" width="15.88" height="2.27"/><rect class="cls-2" x="395.68" y="182.99" width="2.27" height="2.27"/><rect class="cls-2" x="402.48" y="182.99" width="2.27" height="2.27"/><rect class="cls-2" x="388.87" y="182.99" width="2.27" height="2.27"/><polygon class="cls-2" points="433.1 176.19 433.1 185.26 451.25 185.26 451.25 169.38 443.31 169.38 443.31 171.65 448.98 171.65 448.98 182.99 435.37 182.99 435.37 176.19 433.1 176.19"/><rect class="cls-2" x="437.64" y="178.46" width="9.07" height="2.27"/><rect class="cls-2" x="439.91" y="173.92" width="6.8" height="2.27"/><polygon class="cls-2" points="388.87 148.97 397.94 148.97 397.94 146.7 391.14 146.7 391.14 135.36 404.75 135.36 404.75 144.43 407.02 144.43 407.02 133.09 388.87 133.09 388.87 148.97"/><rect class="cls-2" x="393.41" y="137.63" width="9.07" height="2.27"/><rect class="cls-2" x="393.41" y="142.16" width="9.07" height="2.27"/><g class="cls-3"><path class="cls-2" d="M199.85,136.61a2.82,2.82,0,1,1,2.81-2.82,2.81,2.81,0,0,1-2.81,2.82m0-7.88a5.07,5.07,0,1,0,5.07,5.06,5.07,5.07,0,0,0-5.07-5.06"/><path class="cls-2" d="M245.44,132.11a1.13,1.13,0,1,1-1.13-1.13,1.13,1.13,0,0,1,1.13,1.13"/><path class="cls-2" d="M240.94,132.11a1.13,1.13,0,1,1-1.13-1.13,1.13,1.13,0,0,1,1.13,1.13"/><path class="cls-2" d="M247.68,135.49a1.12,1.12,0,1,1-1.12-1.13,1.12,1.12,0,0,1,1.12,1.13"/><path class="cls-2" d="M243.18,135.49a1.12,1.12,0,1,1-1.12-1.13,1.12,1.12,0,0,1,1.12,1.13"/><path class="cls-2" d="M236.43,132.11a1.13,1.13,0,1,1-1.12-1.13,1.12,1.12,0,0,1,1.12,1.13"/><path class="cls-2" d="M238.68,135.49a1.13,1.13,0,1,1-1.12-1.13,1.12,1.12,0,0,1,1.12,1.13"/><path class="cls-2" d="M231.93,132.11A1.13,1.13,0,1,1,230.8,131a1.12,1.12,0,0,1,1.13,1.13"/><path class="cls-2" d="M234.18,135.49a1.13,1.13,0,1,1-1.13-1.13,1.12,1.12,0,0,1,1.13,1.13"/><path class="cls-2" d="M227.43,132.11A1.13,1.13,0,1,1,226.3,131a1.13,1.13,0,0,1,1.13,1.13"/><path class="cls-2" d="M229.68,135.49a1.13,1.13,0,1,1-1.13-1.13,1.12,1.12,0,0,1,1.13,1.13"/><path class="cls-2" d="M193.22,143.36a2.93,2.93,0,0,1-2.93-2.93V127.17a2.94,2.94,0,0,1,2.93-2.94h57.16a2.94,2.94,0,0,1,2.93,2.94v13.26a2.93,2.93,0,0,1-2.93,2.93Zm60.09,5.19v13.26a2.94,2.94,0,0,1-2.93,2.94H193.22a2.94,2.94,0,0,1-2.93-2.94V148.55a2.93,2.93,0,0,1,2.93-2.93h57.16a2.93,2.93,0,0,1,2.93,2.93m0,21.38V183.2a2.93,2.93,0,0,1-2.93,2.93H193.22a2.92,2.92,0,0,1-2.93-2.93V169.93a2.93,2.93,0,0,1,2.93-2.93h57.16a2.93,2.93,0,0,1,2.93,2.93m2.25-29.5V127.17a5.18,5.18,0,0,0-5.18-5.19H193.22a5.18,5.18,0,0,0-5.18,5.19v13.26a5.16,5.16,0,0,0,2,4.06,5.16,5.16,0,0,0-2,4.06v13.26a5.14,5.14,0,0,0,2,4.06,5.16,5.16,0,0,0-2,4.06V183.2a5.18,5.18,0,0,0,5.18,5.18h57.16a5.19,5.19,0,0,0,5.18-5.18V169.93a5.16,5.16,0,0,0-2-4.06,5.14,5.14,0,0,0,2-4.06V148.55a5.16,5.16,0,0,0-2-4.06,5.16,5.16,0,0,0,2-4.06"/><path class="cls-2" d="M199.85,173.75a2.82,2.82,0,1,1-2.81,2.82,2.81,2.81,0,0,1,2.81-2.82m0,7.88a5.07,5.07,0,1,0-5.06-5.06,5.07,5.07,0,0,0,5.06,5.06"/><path class="cls-2" d="M245.44,174.88a1.13,1.13,0,1,1-1.13-1.13,1.13,1.13,0,0,1,1.13,1.13"/><path class="cls-2" d="M240.94,174.88a1.13,1.13,0,1,1-1.13-1.13,1.13,1.13,0,0,1,1.13,1.13"/><path class="cls-2" d="M247.68,178.25a1.12,1.12,0,1,1-1.12-1.12,1.13,1.13,0,0,1,1.12,1.12"/><path class="cls-2" d="M243.18,178.25a1.12,1.12,0,1,1-1.12-1.12,1.13,1.13,0,0,1,1.12,1.12"/><path class="cls-2" d="M236.43,174.88a1.13,1.13,0,1,1-1.12-1.13,1.12,1.12,0,0,1,1.12,1.13"/><path class="cls-2" d="M238.68,178.25a1.13,1.13,0,1,1-1.12-1.12,1.13,1.13,0,0,1,1.12,1.12"/><path class="cls-2" d="M231.93,174.88a1.13,1.13,0,1,1-1.13-1.13,1.12,1.12,0,0,1,1.13,1.13"/><path class="cls-2" d="M234.18,178.25a1.13,1.13,0,1,1-1.13-1.12,1.13,1.13,0,0,1,1.13,1.12"/><path class="cls-2" d="M227.43,174.88a1.13,1.13,0,1,1-1.13-1.13,1.13,1.13,0,0,1,1.13,1.13"/><path class="cls-2" d="M229.68,178.25a1.13,1.13,0,1,1-1.13-1.12,1.13,1.13,0,0,1,1.13,1.12"/><path class="cls-2" d="M4.78,125.15a3.41,3.41,0,0,1,3.4-3.4H37.67a3.4,3.4,0,0,1,3.4,3.4v1.13H4.78Zm0,3.4H41.07v2.27h2.27v-5.67a5.67,5.67,0,0,0-5.67-5.67H8.18a5.68,5.68,0,0,0-5.67,5.67v5.67H4.78Z"/><path class="cls-2" d="M4.78,180.73H41.07v3.4a3.4,3.4,0,0,1-3.4,3.4H8.18a3.41,3.41,0,0,1-3.4-3.4Zm-2.27,3.4a5.68,5.68,0,0,0,5.67,5.67H37.67a5.68,5.68,0,0,0,5.67-5.67v-5.67H2.51Z"/></g><rect class="cls-2" x="17.26" y="182.99" width="11.34" height="2.27"/><g class="cls-3"><path class="cls-4" d="M7.2,131.18s-7.2,0-7.2,7.2v31.45S0,177,7.2,177H38.65s7.2,0,7.2-7.2V138.38s0-7.2-7.2-7.2Z"/><path class="cls-5" d="M23,149a4.92,4.92,0,1,0,5,5,5,5,0,0,0-5-5m-5.63,7.38a7,7,0,0,0-3.53,1.35c-1.46,1.3-1.57,2.67,0,3.93l.22.14a10,10,0,0,0,4.05,1.51,26.05,26.05,0,0,0,6.48.4,20.35,20.35,0,0,0,5.54-1A5.68,5.68,0,0,0,32.68,161a1.87,1.87,0,0,0,.18-2.4c-1-1.45-2.55-1.94-4.3-2.3l-.62,1.18c.46.15.79.22,1.1.36a18.27,18.27,0,0,1,2.15,1c.7.41.69,1,.07,1.51-.06,0-.13,0-.17,0a8.61,8.61,0,0,0-3.88-1.45,2,2,0,0,0-1.33.17,6.12,6.12,0,0,1-5.76.06,2.41,2.41,0,0,0-1.31-.23,9,9,0,0,0-3.7,1.24,2.89,2.89,0,0,1-.52.22c-.58-.65-.58-1.1.14-1.52a20.27,20.27,0,0,1,2.32-1c.28-.12.56-.21.95-.35l-.66-1.06m5.55,12c-.29-.08-.57-.13-.83-.23l-13.67-5-.4-.16a1.06,1.06,0,0,1-.53-1.71c.32-.52.66-1,1-1.55L19,144.13c.91-1.35,1.8-2.71,2.73-4s1.65-1.28,2.54,0l6.47,9.64q3.27,4.84,6.56,9.68c.36.53.72,1.06,1.06,1.61.54.86.38,1.5-.56,1.9-1.26.53-2.55,1-3.84,1.45l-7.23,2.66c-1,.35-1.92.71-2.89,1-.3.1-.61.15-.92.22"/></g><polygon class="cls-4" points="216.76 365.91 223.09 360.57 216.76 355.23 215.72 356.43 219.69 359.78 208.22 359.78 208.22 361.36 219.69 361.36 215.72 364.71 216.76 365.91"/><rect class="cls-4" x="205.01" y="359.75" width="1.6" height="1.58"/><rect class="cls-4" x="201.8" y="359.78" width="1.6" height="1.58"/><rect class="cls-4" x="198.6" y="359.78" width="1.6" height="1.58"/><polygon class="cls-4" points="228.11 373.36 221.79 378.7 228.11 384.04 229.16 382.84 225.19 379.49 236.65 379.49 236.65 377.91 225.19 377.91 229.16 374.56 228.11 373.36"/><rect class="cls-4" x="238.26" y="377.94" width="1.6" height="1.58"/><rect class="cls-4" x="241.47" y="377.91" width="1.6" height="1.58"/><rect class="cls-4" x="244.67" y="377.91" width="1.6" height="1.58"/><g class="cls-3"><line class="cls-6" x1="419.49" y1="108.12" x2="419.49" y2="48.56"/><path class="cls-7" d="M417.61,40.86a5.67,5.67,0,0,0-2.22-1.44"/><line class="cls-8" x1="407.07" y1="39" x2="261.49" y2="39"/><path class="cls-9" d="M258.63,39h0m154.14,0h0m6.72,6.72h0m0,68.07h0"/><polygon class="cls-2" points="254.22 39 260.33 44.68 260.33 33.33 254.22 39"/><line class="cls-6" x1="402.65" y1="203.81" x2="402.65" y2="263.37"/><path class="cls-7" d="M400.77,271.07a5.54,5.54,0,0,1-2.22,1.43"/><line class="cls-10" x1="390.26" y1="272.92" x2="262.62" y2="272.92"/><path class="cls-9" d="M259.79,272.92h0m136.14,0h0m6.72-6.72h0m0-68.06h0"/><polygon class="cls-2" points="255.38 272.92 261.49 267.24 261.49 278.6 255.38 272.92"/><line class="cls-11" x1="37.36" y1="205.22" x2="37.36" y2="263.52"/><path class="cls-7" d="M39.24,271.16a5.67,5.67,0,0,0,2.22,1.44"/><line class="cls-12" x1="49.79" y1="273.02" x2="184.08" y2="273.02"/><path class="cls-9" d="M186.94,273h0M44.08,273h0m-6.72-6.72h0m0-66.63h0"/><polygon class="cls-2" points="37.36 195.26 31.68 201.36 43.03 201.36 37.36 195.26"/><line class="cls-13" x1="434.33" y1="204" x2="434.33" y2="359.27"/><path class="cls-7" d="M432.45,367.07a5.54,5.54,0,0,1-2.22,1.43"/><line class="cls-14" x1="421.83" y1="368.92" x2="262.92" y2="368.92"/><path class="cls-9" d="M260,368.92h0m167.58,0h0m6.72-6.72h0m0-164.06h0"/><polygon class="cls-2" points="255.62 368.92 261.73 363.24 261.73 374.6 255.62 368.92"/><line class="cls-15" x1="5.68" y1="205.47" x2="5.68" y2="359.39"/><path class="cls-7" d="M7.56,367.16a5.67,5.67,0,0,0,2.22,1.44"/><line class="cls-16" x1="18.13" y1="369.02" x2="181.43" y2="369.02"/><path class="cls-9" d="M184.29,369h0M12.4,369h0M5.68,362.3h0m0-162.63h0"/><polygon class="cls-2" points="5.68 195.26 0 201.36 11.35 201.36 5.68 195.26"/><line class="cls-17" x1="21.91" y1="103.58" x2="21.91" y2="48.53"/><path class="cls-7" d="M23.79,40.76A5.54,5.54,0,0,1,26,39.33"/><line class="cls-18" x1="34.29" y1="38.91" x2="184.25" y2="38.91"/><path class="cls-9" d="M187.08,38.91h0m-158.45,0h0m-6.72,6.72h0m0,63.75h0"/><polygon class="cls-2" points="21.91 113.79 16.23 107.68 27.58 107.68 21.91 113.79"/></g><line class="cls-19" x1="65.67" y1="155.18" x2="173.93" y2="155.18"/><path class="cls-9" d="M176.85,155.18h0m-117,0h0"/><polygon class="cls-2" points="181.26 155.18 175.16 149.5 175.16 160.86 181.26 155.18"/><line class="cls-20" x1="267.11" y1="155.18" x2="373.14" y2="155.18"/><path class="cls-9" d="M376,155.18h0m-114.63,0h0"/><polygon class="cls-2" points="380.42 155.18 374.31 149.5 374.31 160.86 380.42 155.18"/><line class="cls-21" x1="222.43" y1="422.34" x2="222.43" y2="481.52"/><path class="cls-9" d="M222.43,484.34h0m0-67.64h0"/><polygon class="cls-2" points="222.43 412.29 216.75 418.4 228.11 418.4 222.43 412.29"/><polygon class="cls-2" points="222.43 488.75 228.11 482.64 216.75 482.64 222.43 488.75"/><text class="cls-22" transform="translate(201.04 158.06)">Chasqui</text><polygon class="cls-5" points="229.06 441.95 222.08 439.14 202.64 447.64 218.55 461.46 222.43 463.19 224.74 462.11 229.06 453.47 229.06 441.95"/><text class="cls-23" transform="translate(460.49 158.06)">3<tspan class="cls-24" x="6.34" y="0">r</tspan><tspan x="9.96" y="0">d pa</tspan><tspan class="cls-25" x="30.57" y="0">r</tspan><tspan class="cls-26" x="34.7" y="0">t</tspan><tspan x="38.34" y="0">y dapp</tspan></text><text class="cls-23" transform="translate(460.49 168.62)">or <tspan class="cls-27" x="12.31" y="0">w</tspan><tspan x="21.14" y="0">eb app</tspan></text><text class="cls-28" transform="translate(79.12 168.53)">Add<tspan class="cls-29" x="14.52" y="0">r</tspan><tspan x="17.16" y="0">ess (push to</tspan><tspan class="cls-30" x="58.66" y="0">k</tspan><tspan class="cls-31" x="62.44" y="0">en)</tspan></text><text class="cls-28" transform="translate(178.91 199.14)">(URL with J<tspan class="cls-32" x="39.08" y="0">W</tspan><tspan class="cls-31" x="47.68" y="0">T if mobil</tspan><tspan class="cls-33" x="79.38" y="0">e</tspan><tspan x="83.38" y="0">)</tspan></text><g class="cls-3"><path class="cls-4" d="M319.53,28.35A10.56,10.56,0,1,0,309,17.79a10.56,10.56,0,0,0,10.56,10.56"/><path class="cls-4" d="M116.18,28.35a10.56,10.56,0,1,0-10.56-10.56,10.56,10.56,0,0,0,10.56,10.56"/><path class="cls-4" d="M116,147.39a10.56,10.56,0,1,0-10.56-10.56A10.56,10.56,0,0,0,116,147.39"/><path class="cls-4" d="M319.1,147.39a10.56,10.56,0,1,0-10.56-10.56,10.56,10.56,0,0,0,10.56,10.56"/><path class="cls-4" d="M419.34,214.74a10.56,10.56,0,1,0-10.56-10.56,10.56,10.56,0,0,0,10.56,10.56"/><path class="cls-4" d="M334.89,360.62a10.56,10.56,0,1,0-10.56-10.56,10.55,10.55,0,0,0,10.56,10.56"/><path class="cls-4" d="M103.19,360.62a10.56,10.56,0,1,0-10.56-10.56,10.56,10.56,0,0,0,10.56,10.56"/><path class="cls-4" d="M334.89,265.47a10.56,10.56,0,1,0-10.56-10.56,10.56,10.56,0,0,0,10.56,10.56"/><path class="cls-4" d="M103.19,265.47a10.56,10.56,0,1,0-10.56-10.56,10.56,10.56,0,0,0,10.56,10.56"/></g><text class="cls-34" transform="translate(315.5 22.59)">1</text><text class="cls-34" transform="translate(112.34 22.59)">2</text><text class="cls-34" transform="translate(112.14 141.63)">3</text><text class="cls-34" transform="translate(314.29 141.63)">4</text><text class="cls-34" transform="translate(415.5 208.97)">5</text><text class="cls-34" transform="translate(327.21 354.87)">6a</text><text class="cls-34" transform="translate(95.5 354.87)"><tspan class="cls-35">7</tspan><tspan x="7.27" y="0">a</tspan></text><g class="cls-3"><path class="cls-4" d="M262.17,459.88a10.56,10.56,0,1,0-10.56-10.56,10.56,10.56,0,0,0,10.56,10.56"/></g><text class="cls-34" transform="translate(254.49 454.12)"><tspan class="cls-35">7</tspan><tspan x="7.27" y="0">a</tspan></text><text class="cls-34" transform="translate(327.18 259.71)"><tspan class="cls-36">6</tspan><tspan x="7.54" y="0">b</tspan></text><text class="cls-34" transform="translate(95.48 259.71)"><tspan class="cls-36">7</tspan><tspan x="7.54" y="0">b</tspan></text><text class="cls-22" transform="translate(206.44 346.87)"><tspan class="cls-27">P</tspan><tspan x="6.82" y="0">ututu</tspan></text><text class="cls-22" transform="translate(211.13 525.04)">IP<tspan class="cls-37" x="9.7" y="0">F</tspan><tspan x="15.43" y="0">S</tspan></text><text class="cls-38" transform="translate(213.24 450.52)"><tspan class="cls-39">In</tspan><tspan class="cls-40" x="5.85" y="0">f</tspan><tspan class="cls-41" x="8.21" y="0">u</tspan><tspan class="cls-42" x="12.16" y="0">r</tspan><tspan x="14.67" y="0">a</tspan></text><g class="cls-3"><path class="cls-2" d="M243,359.11a1,1,0,1,1-1-1,1,1,0,0,1,1,1"/><path class="cls-2" d="M239.13,359.11a1,1,0,1,1-1-1,1,1,0,0,1,1,1"/><path class="cls-2" d="M244.88,362a1,1,0,1,1-.95-1,1,1,0,0,1,.95,1"/><path class="cls-2" d="M241,362a1,1,0,1,1-1-1,1,1,0,0,1,1,1"/><path class="cls-2" d="M235.28,359.11a1,1,0,1,1-.95-1,1,1,0,0,1,.95,1"/><path class="cls-2" d="M237.21,362a1,1,0,1,1-1-1,1,1,0,0,1,1,1"/><path class="cls-2" d="M198.43,368.71a2.5,2.5,0,0,1-2.5-2.5V354.89a2.5,2.5,0,0,1,2.5-2.5h48.75a2.5,2.5,0,0,1,2.5,2.5v11.32a2.5,2.5,0,0,1-2.5,2.5Zm51.25,4.42v11.31a2.5,2.5,0,0,1-2.5,2.51H198.43a2.5,2.5,0,0,1-2.5-2.51V373.13a2.5,2.5,0,0,1,2.5-2.5h48.75a2.5,2.5,0,0,1,2.5,2.5m-24,28.22a2.88,2.88,0,1,1-2.87-2.88,2.88,2.88,0,0,1,2.87,2.88m25.93-35.14V354.89a4.43,4.43,0,0,0-4.43-4.42H198.43a4.42,4.42,0,0,0-4.42,4.42v11.32a4.39,4.39,0,0,0,1.7,3.46,4.39,4.39,0,0,0-1.7,3.46v11.31a4.42,4.42,0,0,0,4.42,4.43h23.41v7.78a4.81,4.81,0,0,0-3.74,3.74H195a1,1,0,0,0,0,1.92H218.1a4.8,4.8,0,0,0,9.41,0h23.13a1,1,0,1,0,0-1.92H227.51a4.81,4.81,0,0,0-3.74-3.74v-7.78h23.41a4.43,4.43,0,0,0,4.43-4.43V373.13a4.4,4.4,0,0,0-1.71-3.46,4.4,4.4,0,0,0,1.71-3.46"/><path class="cls-2" d="M204.08,376.39a2.4,2.4,0,1,1-2.4,2.4,2.4,2.4,0,0,1,2.4-2.4m0,6.72a4.32,4.32,0,1,0-4.31-4.32,4.32,4.32,0,0,0,4.31,4.32"/><path class="cls-43" d="M231.68,359.11a1,1,0,1,1-1-1,1,1,0,0,1,1,1"/><path class="cls-43" d="M233.61,362a1,1,0,1,1-1-1,1,1,0,0,1,1,1"/><path class="cls-2" d="M241.47,534.63H203.39l-3.86-25.73h45.8Zm-3.37-33.21H206.84v-.82H238.1ZM206,503.09h32.91v.83H206Zm-.82,2.49h34.55v1.66H205.19Zm-2.47-14.11h11.05l2,3.43a1.47,1.47,0,0,0,1.25.72h25.14v11.62h-.82v-3.32h-.82v-2.5h-.83v-2.48H205.19v2.48h-.82v2.5h-.82v3.32h-.83Zm44.1,16.14a1,1,0,0,0-.79-.37h-2.17V495.42A1.46,1.46,0,0,0,242.4,494H217.17l-2-3.44a1.46,1.46,0,0,0-1.25-.71H202.53a1.46,1.46,0,0,0-1.45,1.46v16h-2.25a1,1,0,0,0-1,1.21l4,26.94a1.06,1.06,0,0,0,1,.9H242a1.06,1.06,0,0,0,1-.9l4-26.94a1,1,0,0,0-.24-.84"/></g><path class="cls-2" d="M241.41,454.3l-19,8.12-19-8.12,6.18-2.63,12.8,5.47,12.8-5.47Zm-38-6.67,19-8.07,19,8.07-19,8.12Zm41.24,0-22.26-9.47-22.26,9.47L208,451l-7.83,3.32,9.46,4,12.8,5.47,14.44-6.17,7.82-3.35L236.87,451Z"/><path class="cls-2" d="M248.88,16.47H194.72v-5.6h54.16Zm-56,1.87h57.9V9h-57.9Z"/><rect class="cls-2" x="196.59" y="12.74" width="1.87" height="1.87"/><rect class="cls-2" x="200.32" y="12.74" width="1.87" height="1.87"/><rect class="cls-2" x="204.06" y="12.74" width="1.87" height="1.87"/><polygon class="cls-2" points="248.88 65.03 194.72 65.03 194.72 20.21 192.85 20.21 192.85 66.9 250.75 66.9 250.75 20.21 248.88 20.21 248.88 65.03"/><path class="cls-4" d="M242.64,36.45h-12.5V23.86h12.5Zm0,23.07H215.55V44.84H201v-6.3h14.59V23.86h12.5V38.54h14.59Zm-29.18,0H201V46.94h12.5ZM201,23.86h12.5V36.45H201Zm-2.09,37.76h45.86V21.76H198.87Z"/><path class="cls-4" d="M205.13,28.05h4.17v4.2h-4.17ZM203,34.35h8.34V26H203Z"/><path class="cls-4" d="M209.29,55.33h-4.16v-4.2h4.16Zm2.09-6.3H203v8.4h8.34Z"/><path class="cls-4" d="M238.47,32.25H234.3v-4.2h4.17ZM240.56,26h-8.34v8.39h8.34Z"/><polygon class="cls-4" points="221.8 32.25 219.72 32.25 219.72 25.95 217.63 25.95 217.63 34.35 221.8 34.35 221.8 32.25"/><polygon class="cls-4" points="223.88 34.35 225.97 34.35 225.97 25.95 221.8 25.95 221.8 28.05 223.88 28.05 223.88 34.35"/><polygon class="cls-4" points="219.72 42.74 221.8 42.74 221.8 36.45 217.63 36.45 217.63 38.54 219.72 38.54 219.72 42.74"/><polygon class="cls-4" points="225.97 36.45 223.88 36.45 223.88 46.94 232.22 46.94 232.22 44.84 225.97 44.84 225.97 36.45"/><polygon class="cls-4" points="236.39 49.03 234.31 49.03 234.31 53.23 238.47 53.23 238.47 57.43 240.56 57.43 240.56 51.13 236.39 51.13 236.39 49.03"/><rect class="cls-4" x="234.31" y="44.84" width="6.25" height="2.1"/><polygon class="cls-4" points="221.8 55.33 217.63 55.33 217.63 57.43 223.88 57.43 223.88 53.23 221.8 53.23 221.8 55.33"/><polygon class="cls-4" points="221.8 51.13 225.97 51.13 225.97 57.43 228.05 57.43 228.05 49.03 221.8 49.03 221.8 51.13"/><rect class="cls-4" x="230.14" y="49.03" width="2.08" height="8.39"/><rect class="cls-4" x="203.04" y="40.64" width="12.51" height="2.1"/><rect class="cls-4" x="228.05" y="40.64" width="8.34" height="2.1"/><rect class="cls-4" x="238.47" y="40.64" width="2.08" height="2.1"/><rect class="cls-4" x="217.63" y="44.84" width="2.08" height="8.39"/><rect class="cls-4" x="221.8" y="21.76" width="22.93" height="39.86"/><g class="cls-3"><path class="cls-5" d="M234,27.45a4.72,4.72,0,0,0-4.7,4.7l0,9.71a4.67,4.67,0,0,0,4,4.63h0a4.91,4.91,0,0,0,.67.06,4.8,4.8,0,0,0,.67,0V43.74a2.15,2.15,0,0,1-.67.12,2,2,0,0,1-2-2l0-9.71a2,2,0,0,1,2-2,2,2,0,0,1,2,2v4a6.08,6.08,0,0,1,2.68,1.9V32.14A4.68,4.68,0,0,0,234,27.45m.65,9.76v0a4.74,4.74,0,0,0-.67-.07,4.91,4.91,0,0,0-.67.06V40a2.35,2.35,0,0,1,.67-.12,2,2,0,0,1,2,2l0,9.38a2,2,0,1,1-4,0v-3.7a5.92,5.92,0,0,1-2.68-1.9v5.61a4.69,4.69,0,1,0,9.38,0l0-9.39a4.69,4.69,0,0,0-4-4.63"/></g><path class="cls-2" d="M248.88,252.5H194.72v-5.6h54.16Zm-56,1.87h57.9V245h-57.9Z"/><rect class="cls-2" x="196.59" y="248.76" width="1.87" height="1.87"/><rect class="cls-2" x="200.32" y="248.76" width="1.87" height="1.87"/><rect class="cls-2" x="204.06" y="248.76" width="1.87" height="1.87"/><polygon class="cls-2" points="248.88 301.06 194.72 301.06 194.72 256.23 192.85 256.23 192.85 302.92 250.75 302.92 250.75 256.23 248.88 256.23 248.88 301.06"/><path class="cls-4" d="M242.64,272.47h-12.5V259.89h12.5Zm0,23.08H215.55V280.87H201v-6.3h14.59V259.89h12.5v14.68h14.59Zm-29.18,0H201V283h12.5ZM201,259.89h12.5v12.58H201Zm-2.09,37.76h45.86V257.79H198.87Z"/><path class="cls-4" d="M205.13,264.08h4.17v4.2h-4.17Zm-2.09,6.3h8.34V262H203Z"/><path class="cls-4" d="M209.29,291.36h-4.16v-4.2h4.16Zm2.09-6.3H203v8.39h8.34Z"/><path class="cls-4" d="M238.47,268.28H234.3v-4.2h4.17Zm2.09-6.3h-8.34v8.4h8.34Z"/><polygon class="cls-4" points="221.8 268.28 219.72 268.28 219.72 261.98 217.63 261.98 217.63 270.38 221.8 270.38 221.8 268.28"/><polygon class="cls-4" points="223.88 270.38 225.97 270.38 225.97 261.98 221.8 261.98 221.8 264.08 223.88 264.08 223.88 270.38"/><polygon class="cls-4" points="219.72 278.77 221.8 278.77 221.8 272.47 217.63 272.47 217.63 274.57 219.72 274.57 219.72 278.77"/><polygon class="cls-4" points="225.97 272.47 223.88 272.47 223.88 282.96 232.22 282.96 232.22 280.87 225.97 280.87 225.97 272.47"/><polygon class="cls-4" points="236.39 285.06 234.31 285.06 234.31 289.26 238.47 289.26 238.47 293.45 240.56 293.45 240.56 287.16 236.39 287.16 236.39 285.06"/><rect class="cls-4" x="234.31" y="280.87" width="6.25" height="2.1"/><polygon class="cls-4" points="221.8 291.36 217.63 291.36 217.63 293.45 223.88 293.45 223.88 289.26 221.8 289.26 221.8 291.36"/><polygon class="cls-4" points="221.8 287.16 225.97 287.16 225.97 293.45 228.05 293.45 228.05 285.06 221.8 285.06 221.8 287.16"/><rect class="cls-4" x="230.14" y="285.06" width="2.08" height="8.39"/><rect class="cls-4" x="203.04" y="276.67" width="12.51" height="2.1"/><rect class="cls-4" x="228.05" y="276.67" width="8.34" height="2.1"/><rect class="cls-4" x="238.47" y="276.67" width="2.08" height="2.1"/><rect class="cls-4" x="217.63" y="280.87" width="2.08" height="8.39"/><rect class="cls-4" x="221.8" y="257.79" width="22.93" height="39.86"/><g class="cls-3"><path class="cls-5" d="M234,263.48a4.72,4.72,0,0,0-4.7,4.7l0,9.71a4.67,4.67,0,0,0,4,4.63h0c.22,0,.44.06.67.06a4.8,4.8,0,0,0,.67-.05v-2.75a2.15,2.15,0,0,1-.67.12,2,2,0,0,1-2-2l0-9.71a2,2,0,0,1,2-2,2,2,0,0,1,2,2v4a6,6,0,0,1,2.68,1.9v-5.93a4.67,4.67,0,0,0-4.68-4.68m.65,9.76h0c-.21,0-.44-.06-.67-.06s-.45,0-.67.05V276a2,2,0,0,1,.67-.12,2,2,0,0,1,2,2l0,9.38a2,2,0,1,1-4,0v-3.7a5.92,5.92,0,0,1-2.68-1.9v5.61a4.69,4.69,0,1,0,9.38,0l0-9.39a4.69,4.69,0,0,0-4-4.63"/></g></svg>