<svg id="Layer_1" data-name="Layer 1" xmlns="http://www.w3.org/2000/svg" xmlns:xlink="http://www.w3.org/1999/xlink" viewBox="0 0 477.69 216.68"><defs><style>.cls-1,.cls-10,.cls-11,.cls-12,.cls-13,.cls-14,.cls-6,.cls-7,.cls-8,.cls-9{fill:none;}.cls-2{fill:#34344f;}.cls-3{clip-path:url(#clip-path);}.cls-15,.cls-16,.cls-4{fill:#5f32b7;}.cls-26,.cls-5{fill:#fff;}.cls-10,.cls-11,.cls-12,.cls-13,.cls-14,.cls-6,.cls-7,.cls-8,.cls-9{stroke:#34344f;stroke-linecap:round;stroke-linejoin:round;stroke-width:1.92px;}.cls-6{stroke-dasharray:0 5.67;}.cls-7{stroke-dasharray:0 5.33;}.cls-8{stroke-dasharray:0 5.71;}.cls-10{stroke-dasharray:0 5.8;}.cls-11{stroke-dasharray:0 5.66;}.cls-12{stroke-dasharray:0 5.85;}.cls-13{stroke-dasharray:0 5.91;}.cls-14{stroke-dasharray:0 5.78;}.cls-15,.cls-16{font-size:10.56px;}.cls-15{font-family:NunitoSans-SemiBold, Nunito Sans;}.cls-15,.cls-26{font-weight:700;}.cls-16{font-family:NunitoSans-Regular, Nunito Sans;}.cls-17{letter-spacing:-0.01em;}.cls-18{letter-spacing:0.04em;}.cls-19{letter-spacing:0em;}.cls-20{letter-spacing:-0.01em;}.cls-21{letter-spacing:0em;}.cls-22{letter-spacing:0em;}.cls-23{letter-spacing:0em;}.cls-24{letter-spacing:-0.01em;}.cls-25{letter-spacing:0.02em;}.cls-26{font-size:13.44px;font-family:NunitoSans-Bold, Nunito Sans;}</style><clipPath id="clip-path"><rect class="cls-1" width="477.69" height="216.68"/></clipPath></defs><title>Doc Diagrams-01</title><path class="cls-2" d="M452.39,128.32H386.6v-6.8h65.79Zm-68.06,2.27h70.32V119.25H384.33Z"/><rect class="cls-2" x="388.87" y="123.79" width="2.27" height="2.27"/><rect class="cls-2" x="393.41" y="123.79" width="2.27" height="2.27"/><rect class="cls-2" x="397.95" y="123.79" width="2.27" height="2.27"/><polygon class="cls-2" points="452.38 187.3 386.6 187.3 386.6 132.86 384.33 132.86 384.33 189.57 454.65 189.57 454.65 132.86 452.38 132.86 452.38 187.3"/><g class="cls-3"><path class="cls-4" d="M419.49,154.41A4.54,4.54,0,1,1,415,159a4.54,4.54,0,0,1,4.53-4.54m-2.26-14.74a2.27,2.27,0,1,1,2.26,2.26,2.27,2.27,0,0,1-2.26-2.26m2.26,38.56a1.14,1.14,0,1,1,1.14-1.14,1.14,1.14,0,0,1-1.14,1.14m15.15-29.34a1.16,1.16,0,0,1,.57-.15,1.14,1.14,0,0,1,.57,2.12,1.14,1.14,0,0,1-1.14-2m-.41,18.56a2.22,2.22,0,0,1,1.38-1,2,2,0,0,1,.59-.08,2.24,2.24,0,0,1,2.18,1.68,2.26,2.26,0,0,1-1.6,2.78,2.2,2.2,0,0,1-1.72-.23,2.26,2.26,0,0,1-.83-3.1M405,169.18a2.28,2.28,0,0,1-1.06,1.37,2.2,2.2,0,0,1-1.72.23,2.27,2.27,0,0,1,.58-4.46,2.06,2.06,0,0,1,.6.08,2.23,2.23,0,0,1,1.37,1,2.32,2.32,0,0,1,.23,1.73m-.23-18.74a1.13,1.13,0,1,1-2-1.13,1.12,1.12,0,0,1,1-.57,1.18,1.18,0,0,1,.57.15,1.14,1.14,0,0,1,.41,1.55m.72-3.51a3.4,3.4,0,1,0-3.4,5.89,3.36,3.36,0,0,0,1.69.46,3.45,3.45,0,0,0,2.2-.83l7.15,4.13a6.75,6.75,0,0,0,0,4.74l-7.1,4.1a4.5,4.5,0,0,0-2-1.21,4.45,4.45,0,0,0-3.44.45,4.54,4.54,0,0,0,1.09,8.31,4.79,4.79,0,0,0,1.18.16,4.55,4.55,0,0,0,4.38-3.37,4.47,4.47,0,0,0,0-2.38l7.1-4.1a6.84,6.84,0,0,0,4.11,2.37v8.25a3.41,3.41,0,1,0,2.27,0v-8.25a6.78,6.78,0,0,0,4.1-2.37l7.1,4.1a4.57,4.57,0,0,0,0,2.38,4.51,4.51,0,0,0,2.11,2.76,4.56,4.56,0,0,0,2.26.61,4.8,4.8,0,0,0,1.19-.16,4.53,4.53,0,1,0-4.4-7.55l-7.11-4.1a6.69,6.69,0,0,0,.44-2.37,6.87,6.87,0,0,0-.43-2.37l7.15-4.13a3.45,3.45,0,0,0,2.2.83,3.36,3.36,0,0,0,1.69-.46h0a3.4,3.4,0,1,0-5-2.33l-7.15,4.12a6.78,6.78,0,0,0-4.1-2.37V144a4.54,4.54,0,1,0-2.27,0v8.2a6.84,6.84,0,0,0-4.11,2.37l-7.14-4.12a3.39,3.39,0,0,0-1.63-3.56"/></g><rect class="cls-2" x="431.97" y="132.86" width="18.15" height="2.27"/><rect class="cls-2" x="436.51" y="137.4" width="13.61" height="2.27"/><rect class="cls-2" x="431.97" y="137.4" width="2.27" height="2.27"/><rect class="cls-2" x="447.85" y="141.93" width="2.27" height="2.27"/><rect class="cls-2" x="431.97" y="141.93" width="13.61" height="2.27"/><rect class="cls-2" x="388.87" y="178.23" width="15.88" height="2.27"/><rect class="cls-2" x="395.68" y="182.76" width="2.27" height="2.27"/><rect class="cls-2" x="402.48" y="182.76" width="2.27" height="2.27"/><rect class="cls-2" x="388.87" y="182.76" width="2.27" height="2.27"/><polygon class="cls-2" points="433.1 175.96 433.1 185.03 451.25 185.03 451.25 169.16 443.31 169.16 443.31 171.42 448.98 171.42 448.98 182.76 435.37 182.76 435.37 175.96 433.1 175.96"/><rect class="cls-2" x="437.64" y="178.23" width="9.07" height="2.27"/><rect class="cls-2" x="439.91" y="173.69" width="6.8" height="2.27"/><polygon class="cls-2" points="388.87 148.74 397.94 148.74 397.94 146.47 391.14 146.47 391.14 135.13 404.75 135.13 404.75 144.2 407.02 144.2 407.02 132.86 388.87 132.86 388.87 148.74"/><rect class="cls-2" x="393.41" y="137.4" width="9.07" height="2.27"/><rect class="cls-2" x="393.41" y="141.93" width="9.07" height="2.27"/><g class="cls-3"><path class="cls-2" d="M199.85,136.38a2.82,2.82,0,1,1,2.81-2.81,2.81,2.81,0,0,1-2.81,2.81m0-7.87a5.06,5.06,0,1,0,5.07,5.06,5.06,5.06,0,0,0-5.07-5.06"/><path class="cls-2" d="M245.44,131.88a1.13,1.13,0,1,1-1.13-1.13,1.14,1.14,0,0,1,1.13,1.13"/><path class="cls-2" d="M240.94,131.88a1.13,1.13,0,1,1-1.13-1.13,1.14,1.14,0,0,1,1.13,1.13"/><path class="cls-2" d="M247.68,135.26a1.12,1.12,0,1,1-1.12-1.13,1.12,1.12,0,0,1,1.12,1.13"/><path class="cls-2" d="M243.18,135.26a1.12,1.12,0,1,1-1.12-1.13,1.12,1.12,0,0,1,1.12,1.13"/><path class="cls-2" d="M236.43,131.88a1.13,1.13,0,1,1-1.12-1.13,1.13,1.13,0,0,1,1.12,1.13"/><path class="cls-2" d="M238.68,135.26a1.13,1.13,0,1,1-1.12-1.13,1.12,1.12,0,0,1,1.12,1.13"/><path class="cls-2" d="M231.93,131.88a1.13,1.13,0,1,1-1.13-1.13,1.13,1.13,0,0,1,1.13,1.13"/><path class="cls-2" d="M234.18,135.26a1.13,1.13,0,1,1-1.13-1.13,1.12,1.12,0,0,1,1.13,1.13"/><path class="cls-2" d="M227.43,131.88a1.13,1.13,0,1,1-1.13-1.13,1.14,1.14,0,0,1,1.13,1.13"/><path class="cls-2" d="M229.68,135.26a1.13,1.13,0,1,1-1.13-1.13,1.12,1.12,0,0,1,1.13,1.13"/><path class="cls-2" d="M193.22,143.13a2.93,2.93,0,0,1-2.93-2.93V126.94a2.93,2.93,0,0,1,2.93-2.93h57.16a2.93,2.93,0,0,1,2.93,2.93V140.2a2.93,2.93,0,0,1-2.93,2.93Zm60.09,5.19v13.26a2.94,2.94,0,0,1-2.93,2.94H193.22a2.94,2.94,0,0,1-2.93-2.94V148.32a2.93,2.93,0,0,1,2.93-2.93h57.16a2.93,2.93,0,0,1,2.93,2.93m0,21.39V183a2.93,2.93,0,0,1-2.93,2.93H193.22a2.92,2.92,0,0,1-2.93-2.93V169.71a2.94,2.94,0,0,1,2.93-2.94h57.16a2.94,2.94,0,0,1,2.93,2.94m2.25-29.51V126.94a5.19,5.19,0,0,0-5.18-5.19H193.22a5.19,5.19,0,0,0-5.18,5.19V140.2a5.16,5.16,0,0,0,2,4.06,5.16,5.16,0,0,0-2,4.06v13.26a5.14,5.14,0,0,0,2,4.06,5.18,5.18,0,0,0-2,4.07V183a5.18,5.18,0,0,0,5.18,5.18h57.16a5.19,5.19,0,0,0,5.18-5.18V169.71a5.18,5.18,0,0,0-2-4.07,5.14,5.14,0,0,0,2-4.06V148.32a5.16,5.16,0,0,0-2-4.06,5.16,5.16,0,0,0,2-4.06"/><path class="cls-2" d="M199.85,173.53a2.81,2.81,0,1,1-2.81,2.81,2.8,2.8,0,0,1,2.81-2.81m0,7.87a5.07,5.07,0,1,0-5.06-5.06,5.07,5.07,0,0,0,5.06,5.06"/><path class="cls-2" d="M245.44,174.65a1.13,1.13,0,1,1-1.13-1.12,1.13,1.13,0,0,1,1.13,1.12"/><path class="cls-2" d="M240.94,174.65a1.13,1.13,0,1,1-1.13-1.12,1.13,1.13,0,0,1,1.13,1.12"/><path class="cls-2" d="M247.68,178a1.12,1.12,0,1,1-1.12-1.13,1.12,1.12,0,0,1,1.12,1.13"/><path class="cls-2" d="M243.18,178a1.12,1.12,0,1,1-1.12-1.13,1.12,1.12,0,0,1,1.12,1.13"/><path class="cls-2" d="M236.43,174.65a1.13,1.13,0,1,1-1.12-1.12,1.12,1.12,0,0,1,1.12,1.12"/><path class="cls-2" d="M238.68,178a1.13,1.13,0,0,1-2.25,0,1.13,1.13,0,1,1,2.25,0"/><path class="cls-2" d="M231.93,174.65a1.13,1.13,0,1,1-1.13-1.12,1.12,1.12,0,0,1,1.13,1.12"/><path class="cls-2" d="M234.18,178a1.13,1.13,0,1,1-1.13-1.13,1.12,1.12,0,0,1,1.13,1.13"/><path class="cls-2" d="M227.43,174.65a1.13,1.13,0,1,1-1.13-1.12,1.13,1.13,0,0,1,1.13,1.12"/><path class="cls-2" d="M229.68,178a1.13,1.13,0,1,1-1.13-1.13,1.12,1.12,0,0,1,1.13,1.13"/><path class="cls-2" d="M4.78,124.92a3.41,3.41,0,0,1,3.4-3.4H37.67a3.4,3.4,0,0,1,3.4,3.4v1.14H4.78Zm0,3.4H41.07v2.27h2.27v-5.67a5.68,5.68,0,0,0-5.67-5.67H8.18a5.68,5.68,0,0,0-5.67,5.67v5.67H4.78Z"/><path class="cls-2" d="M4.78,180.5H41.07v3.4a3.4,3.4,0,0,1-3.4,3.4H8.18a3.4,3.4,0,0,1-3.4-3.4Zm-2.27,3.4a5.68,5.68,0,0,0,5.67,5.67H37.67a5.67,5.67,0,0,0,5.67-5.67v-5.67H2.51Z"/></g><rect class="cls-2" x="17.26" y="182.76" width="11.34" height="2.27"/><g class="cls-3"><path class="cls-4" d="M7.2,131S0,131,0,138.15V169.6s0,7.2,7.2,7.2H38.65s7.2,0,7.2-7.2V138.15s0-7.2-7.2-7.2Z"/><path class="cls-5" d="M23,148.72a4.92,4.92,0,1,0,5,5,5,5,0,0,0-5-5m-5.63,7.38a7,7,0,0,0-3.53,1.35c-1.46,1.3-1.57,2.67,0,3.93l.22.14A10,10,0,0,0,18.12,163a26.05,26.05,0,0,0,6.48.4,20.35,20.35,0,0,0,5.54-1.05,5.68,5.68,0,0,0,2.54-1.64,1.86,1.86,0,0,0,.18-2.39c-1-1.46-2.55-1.95-4.3-2.31l-.62,1.19c.46.14.79.22,1.1.35a18.27,18.27,0,0,1,2.15,1c.7.41.69,1,.07,1.52-.06,0-.13,0-.17,0a8.48,8.48,0,0,0-3.88-1.44,2,2,0,0,0-1.33.16,6.12,6.12,0,0,1-5.76.06,2.41,2.41,0,0,0-1.31-.23,9,9,0,0,0-3.7,1.24,2.89,2.89,0,0,1-.52.22c-.58-.65-.58-1.1.14-1.52a20.27,20.27,0,0,1,2.32-1.05c.28-.12.56-.21.95-.35l-.66-1.06m5.55,12c-.29-.07-.57-.13-.83-.22l-13.67-5L8,162.7A1.06,1.06,0,0,1,7.46,161c.32-.52.66-1,1-1.55L19,143.9c.91-1.35,1.8-2.71,2.73-4s1.65-1.28,2.54,0c2.16,3.2,4.31,6.42,6.47,9.63s4.37,6.45,6.56,9.68c.36.53.72,1.07,1.06,1.61.54.87.38,1.5-.56,1.9-1.26.53-2.55,1-3.84,1.45l-7.23,2.66c-1,.35-1.92.71-2.89,1a7.24,7.24,0,0,1-.92.22"/><line class="cls-6" x1="419.49" y1="107.89" x2="419.49" y2="48.33"/><path class="cls-7" d="M417.61,40.63a5.67,5.67,0,0,0-2.22-1.44"/><line class="cls-8" x1="407.07" y1="38.77" x2="261.49" y2="38.77"/><path class="cls-9" d="M258.63,38.77h0m154.14,0h0m6.72,6.72h0m0,68.07h0"/><polygon class="cls-2" points="254.22 38.77 260.33 44.45 260.33 33.1 254.22 38.77"/><line class="cls-10" x1="21.91" y1="103.35" x2="21.91" y2="48.3"/><path class="cls-7" d="M23.79,40.53A5.54,5.54,0,0,1,26,39.1"/><line class="cls-11" x1="34.29" y1="38.68" x2="184.25" y2="38.68"/><path class="cls-9" d="M187.08,38.68h0m-158.45,0h0M21.91,45.4h0m0,63.75h0"/><polygon class="cls-2" points="21.91 113.56 16.23 107.45 27.58 107.45 21.91 113.56"/></g><line class="cls-12" x1="65.67" y1="154.95" x2="173.93" y2="154.95"/><path class="cls-9" d="M176.85,155h0m-117,0h0"/><polygon class="cls-2" points="181.26 154.95 175.16 149.28 175.16 160.63 181.26 154.95"/><line class="cls-13" x1="369.14" y1="166.95" x2="265.77" y2="166.95"/><path class="cls-9" d="M262.82,167h0m112.23,0h0"/><polygon class="cls-2" points="379.46 166.95 373.35 161.28 373.35 172.63 379.46 166.95"/><line class="cls-14" x1="271.57" y1="142.95" x2="372.73" y2="142.95"/><path class="cls-9" d="M375.62,143h0m-109.83,0h0"/><polygon class="cls-2" points="261.38 142.95 267.49 148.63 267.49 137.28 261.38 142.95"/><text class="cls-15" transform="translate(201.04 157.84)">Chasqui</text><text class="cls-16" transform="translate(388.1 202.39)">3<tspan class="cls-17" x="6.34" y="0">r</tspan><tspan x="9.96" y="0">d pa</tspan><tspan class="cls-18" x="30.57" y="0">r</tspan><tspan class="cls-19" x="34.7" y="0">t</tspan><tspan x="38.34" y="0">y app</tspan></text><text class="cls-16" transform="translate(377.41 212.95)"><tspan class="cls-20">(</tspan><tspan class="cls-21" x="3.25" y="0">des</tspan><tspan class="cls-22" x="20.03" y="0">k</tspan><tspan x="25.28" y="0">top b</tspan><tspan class="cls-17" x="49.75" y="0">r</tspan><tspan class="cls-23" x="53.37" y="0">o</tspan><tspan class="cls-24" x="59.18" y="0">w</tspan><tspan x="67.97" y="0">se</tspan><tspan class="cls-25" x="78.61" y="0">r</tspan><tspan x="82.51" y="0">)</tspan></text><g class="cls-3"><path class="cls-4" d="M319.53,28.12A10.56,10.56,0,1,0,309,17.56a10.56,10.56,0,0,0,10.56,10.56"/></g><text class="cls-26" transform="translate(315.5 22.36)">1</text><g class="cls-3"><path class="cls-4" d="M319.53,136.83A10.56,10.56,0,1,0,309,126.27a10.56,10.56,0,0,0,10.56,10.56"/></g><text class="cls-26" transform="translate(315.69 131.06)">2</text><g class="cls-3"><path class="cls-4" d="M116,28.12a10.56,10.56,0,1,0-10.56-10.56A10.56,10.56,0,0,0,116,28.12"/></g><text class="cls-26" transform="translate(112.14 22.36)">3</text><g class="cls-3"><path class="cls-4" d="M116,148.83a10.56,10.56,0,1,0-10.56-10.56A10.56,10.56,0,0,0,116,148.83"/></g><text class="cls-26" transform="translate(111.18 143.06)">4</text><g class="cls-3"><path class="cls-4" d="M319.53,195A10.56,10.56,0,1,0,309,184.47,10.56,10.56,0,0,0,319.53,195"/></g><text class="cls-26" transform="translate(315.69 189.27)">5</text><path class="cls-2" d="M248.88,16.24H194.72v-5.6h54.16Zm-56,1.87h57.9V8.77h-57.9Z"/><rect class="cls-2" x="196.59" y="12.51" width="1.87" height="1.87"/><rect class="cls-2" x="200.32" y="12.51" width="1.87" height="1.87"/><rect class="cls-2" x="204.06" y="12.51" width="1.87" height="1.87"/><polygon class="cls-2" points="248.88 64.8 194.72 64.8 194.72 19.98 192.85 19.98 192.85 66.67 250.75 66.67 250.75 19.98 248.88 19.98 248.88 64.8"/><path class="cls-4" d="M242.64,36.22h-12.5V23.63h12.5Zm0,23.08H215.55V44.61H201V38.32h14.59V23.63h12.5V38.32h14.59Zm-29.18,0H201V46.71h12.5ZM201,23.63h12.5V36.22H201Zm-2.09,37.76h45.86V21.53H198.87Z"/><path class="cls-4" d="M205.13,27.82h4.17V32h-4.17ZM203,34.12h8.34V25.73H203Z"/><path class="cls-4" d="M209.29,55.1h-4.16V50.9h4.16Zm2.09-6.29H203V57.2h8.34Z"/><path class="cls-4" d="M238.47,32H234.3V27.83h4.17Zm2.09-6.29h-8.34v8.39h8.34Z"/><polygon class="cls-4" points="221.8 32.02 219.72 32.02 219.72 25.73 217.63 25.73 217.63 34.12 221.8 34.12 221.8 32.02"/><polygon class="cls-4" points="223.88 34.12 225.97 34.12 225.97 25.73 221.8 25.73 221.8 27.82 223.88 27.82 223.88 34.12"/><polygon class="cls-4" points="219.72 42.51 221.8 42.51 221.8 36.22 217.63 36.22 217.63 38.32 219.72 38.32 219.72 42.51"/><polygon class="cls-4" points="225.97 36.22 223.88 36.22 223.88 46.71 232.22 46.71 232.22 44.61 225.97 44.61 225.97 36.22"/><polygon class="cls-4" points="236.39 48.81 234.31 48.81 234.31 53 238.47 53 238.47 57.2 240.56 57.2 240.56 50.9 236.39 50.9 236.39 48.81"/><rect class="cls-4" x="234.31" y="44.61" width="6.25" height="2.1"/><polygon class="cls-4" points="221.8 55.1 217.63 55.1 217.63 57.2 223.88 57.2 223.88 53 221.8 53 221.8 55.1"/><polygon class="cls-4" points="221.8 50.9 225.97 50.9 225.97 57.2 228.05 57.2 228.05 48.81 221.8 48.81 221.8 50.9"/><rect class="cls-4" x="230.14" y="48.81" width="2.08" height="8.39"/><rect class="cls-4" x="203.04" y="40.41" width="12.51" height="2.1"/><rect class="cls-4" x="228.05" y="40.41" width="8.34" height="2.1"/><rect class="cls-4" x="238.47" y="40.41" width="2.08" height="2.1"/><rect class="cls-4" x="217.63" y="44.61" width="2.08" height="8.39"/><rect class="cls-4" x="221.8" y="21.53" width="22.93" height="39.86"/><g class="cls-3"><path class="cls-5" d="M234,27.22a4.72,4.72,0,0,0-4.7,4.71l0,9.7a4.67,4.67,0,0,0,4,4.63h0a4.9,4.9,0,0,0,.67.07,4.77,4.77,0,0,0,.67-.06V43.51a2.49,2.49,0,0,1-.67.13,2,2,0,0,1-2-2l0-9.71a2,2,0,0,1,2-2,2,2,0,0,1,2,2v4a6,6,0,0,1,2.68,1.89V31.91A4.68,4.68,0,0,0,234,27.22m.65,9.76v0a4.74,4.74,0,0,0-.67-.07,4.91,4.91,0,0,0-.67.06v2.75a2,2,0,0,1,.67-.13,2,2,0,0,1,2,2l0,9.38a2,2,0,1,1-4,0v-3.7a5.92,5.92,0,0,1-2.68-1.9V51a4.69,4.69,0,1,0,9.38,0l0-9.39a4.69,4.69,0,0,0-4-4.63"/></g></svg>