<svg id="Layer_1" data-name="Layer 1" xmlns="http://www.w3.org/2000/svg" xmlns:xlink="http://www.w3.org/1999/xlink" viewBox="0 0 502 235"><defs><style>.cls-1,.cls-10,.cls-11,.cls-12,.cls-6,.cls-7,.cls-8,.cls-9{fill:none;}.cls-2{fill:#34344f;}.cls-3{clip-path:url(#clip-path);}.cls-13,.cls-30,.cls-34,.cls-4{fill:#5f32b7;}.cls-35,.cls-5{fill:#fff;}.cls-10,.cls-11,.cls-12,.cls-6,.cls-7,.cls-8,.cls-9{stroke:#34344f;stroke-linecap:round;stroke-linejoin:round;stroke-width:1.92px;}.cls-6{stroke-dasharray:0 5.67;}.cls-7{stroke-dasharray:0 5.33;}.cls-8{stroke-dasharray:0 5.71;}.cls-10{stroke-dasharray:0 5.8;}.cls-11{stroke-dasharray:0 5.66;}.cls-12{stroke-dasharray:0 5.78;}.cls-13{font-size:10.56px;}.cls-13,.cls-30{font-family:NunitoSans-Regular, Nunito Sans;}.cls-14{letter-spacing:-0.01em;}.cls-15{letter-spacing:0.04em;}.cls-16{letter-spacing:0em;}.cls-17{letter-spacing:0em;}.cls-18{letter-spacing:-0.01em;}.cls-19{letter-spacing:0.02em;}.cls-20{letter-spacing:-0.02em;}.cls-21{letter-spacing:0em;}.cls-22{letter-spacing:-0.01em;}.cls-23{letter-spacing:0em;}.cls-24{letter-spacing:-0.03em;}.cls-25{letter-spacing:-0.01em;}.cls-26{letter-spacing:0.02em;}.cls-27{letter-spacing:-0.01em;}.cls-28{letter-spacing:0em;}.cls-29{letter-spacing:-0.01em;}.cls-30{font-size:8.4px;}.cls-31{letter-spacing:-0.01em;}.cls-32{letter-spacing:0.04em;}.cls-33{letter-spacing:0em;}.cls-34{font-size:14.36px;}.cls-34,.cls-35{font-family:NunitoSans-Bold, Nunito Sans;font-weight:700;}.cls-35{font-size:13.44px;}</style><clipPath id="clip-path"><rect class="cls-1" y="0.87" width="503.69" height="235.13"/></clipPath></defs><title>Doc Diagrams-01</title><path class="cls-2" d="M481.42,147.64H415.64v-6.8h65.78Zm-68.05,2.27h70.32V138.57H413.37Z"/><rect class="cls-2" x="417.91" y="143.11" width="2.27" height="2.27"/><rect class="cls-2" x="422.45" y="143.11" width="2.27" height="2.27"/><rect class="cls-2" x="426.98" y="143.11" width="2.27" height="2.27"/><polygon class="cls-2" points="481.42 206.62 415.64 206.62 415.64 152.18 413.37 152.18 413.37 208.89 483.69 208.89 483.69 152.18 481.42 152.18 481.42 206.62"/><g class="cls-3"><path class="cls-4" d="M448.53,173.73a4.54,4.54,0,1,1-4.53,4.54,4.54,4.54,0,0,1,4.53-4.54M446.26,159a2.27,2.27,0,1,1,2.27,2.26,2.27,2.27,0,0,1-2.27-2.26m2.27,38.56a1.14,1.14,0,1,1,1.14-1.14,1.14,1.14,0,0,1-1.14,1.14m15.15-29.34a1.16,1.16,0,0,1,.57-.15,1.12,1.12,0,0,1,1,.57,1.13,1.13,0,1,1-1.55-.42m-.41,18.56a2.23,2.23,0,0,1,1.37-1.05,2,2,0,0,1,.59-.08,2.29,2.29,0,0,1,1.14.3,2.31,2.31,0,0,1,1.05,1.38,2.24,2.24,0,0,1-.22,1.72,2.29,2.29,0,0,1-1.38,1.06,2.27,2.27,0,0,1-2.55-3.33M434,188.49a2.27,2.27,0,0,1-1.06,1.38,2.21,2.21,0,0,1-1.72.23,2.24,2.24,0,0,1-1.38-1.06,2.26,2.26,0,0,1,2-3.4,2.32,2.32,0,0,1,.59.07,2.27,2.27,0,0,1,1.38,1.06,2.3,2.3,0,0,1,.23,1.72m-.23-18.73a1.13,1.13,0,1,1-2-1.13,1.13,1.13,0,0,1,1.54-.42,1.13,1.13,0,0,1,.42,1.55m.72-3.51a3.4,3.4,0,1,0-3.4,5.89,3.32,3.32,0,0,0,1.69.45,3.44,3.44,0,0,0,2.2-.82l7.15,4.13a6.72,6.72,0,0,0,0,4.73l-7.1,4.11a4.53,4.53,0,1,0-4.4,7.55,4.77,4.77,0,0,0,1.18.15,4.43,4.43,0,0,0,2.26-.61,4.46,4.46,0,0,0,2.09-5.13l7.1-4.1A6.84,6.84,0,0,0,447.4,185v8.25a3.41,3.41,0,1,0,2.27,0V185a6.81,6.81,0,0,0,4.1-2.37l7.1,4.1a4.57,4.57,0,0,0,0,2.38,4.51,4.51,0,0,0,2.11,2.76,4.56,4.56,0,0,0,2.26.61,4.72,4.72,0,0,0,1.18-.16,4.55,4.55,0,0,0,2.76-2.11,4.53,4.53,0,0,0-5.1-6.65,4.37,4.37,0,0,0-2.05,1.21l-7.11-4.1a6.6,6.6,0,0,0,0-4.74l7.16-4.13a3.38,3.38,0,0,0,3.89.37h0a3.4,3.4,0,1,0-3.4-5.89,3.37,3.37,0,0,0-1.63,3.56l-7.15,4.12a6.81,6.81,0,0,0-4.1-2.37v-8.2a4.54,4.54,0,1,0-2.27,0v8.2a6.84,6.84,0,0,0-4.11,2.37l-7.14-4.12a3.39,3.39,0,0,0-1.63-3.56"/></g><rect class="cls-2" x="461.01" y="152.18" width="18.15" height="2.27"/><rect class="cls-2" x="465.55" y="156.72" width="13.61" height="2.27"/><rect class="cls-2" x="461.01" y="156.72" width="2.27" height="2.27"/><rect class="cls-2" x="476.89" y="161.25" width="2.27" height="2.27"/><rect class="cls-2" x="461.01" y="161.25" width="13.61" height="2.27"/><rect class="cls-2" x="417.91" y="197.55" width="15.88" height="2.27"/><rect class="cls-2" x="424.71" y="202.08" width="2.27" height="2.27"/><rect class="cls-2" x="431.52" y="202.08" width="2.27" height="2.27"/><rect class="cls-2" x="417.91" y="202.08" width="2.27" height="2.27"/><polygon class="cls-2" points="462.14 195.28 462.14 204.35 480.29 204.35 480.29 188.47 472.35 188.47 472.35 190.74 478.02 190.74 478.02 202.08 464.41 202.08 464.41 195.28 462.14 195.28"/><rect class="cls-2" x="466.68" y="197.55" width="9.07" height="2.27"/><rect class="cls-2" x="468.95" y="193.01" width="6.8" height="2.27"/><polygon class="cls-2" points="417.91 168.06 426.98 168.06 426.98 165.79 420.18 165.79 420.18 154.45 433.79 154.45 433.79 163.52 436.06 163.52 436.06 152.18 417.91 152.18 417.91 168.06"/><rect class="cls-2" x="422.45" y="156.72" width="9.07" height="2.27"/><rect class="cls-2" x="422.45" y="161.25" width="9.07" height="2.27"/><g class="cls-3"><path class="cls-2" d="M33.82,144.24a3.4,3.4,0,0,1,3.4-3.4H66.71a3.4,3.4,0,0,1,3.4,3.4v1.13H33.82Zm0,3.4H70.11v2.27h2.27v-5.67a5.67,5.67,0,0,0-5.67-5.67H37.22a5.67,5.67,0,0,0-5.67,5.67v5.67h2.27Z"/><path class="cls-2" d="M33.82,199.82H70.11v3.4a3.4,3.4,0,0,1-3.4,3.4H37.22a3.4,3.4,0,0,1-3.4-3.4Zm-2.27,3.4a5.67,5.67,0,0,0,5.67,5.67H66.71a5.67,5.67,0,0,0,5.67-5.67v-5.67H31.55Z"/></g><rect class="cls-2" x="46.29" y="202.08" width="11.34" height="2.27"/><g class="cls-3"><path class="cls-4" d="M36.24,150.27s-7.2,0-7.2,7.2v31.45s0,7.2,7.2,7.2H67.69s7.2,0,7.2-7.2V157.47s0-7.2-7.2-7.2Z"/><path class="cls-5" d="M52,168a4.92,4.92,0,1,0,5,5,5,5,0,0,0-5-5m-5.63,7.38a7,7,0,0,0-3.53,1.35c-1.46,1.3-1.57,2.67,0,3.93.07.05.15.09.21.14a10.05,10.05,0,0,0,4.06,1.51,26,26,0,0,0,6.48.4,20.42,20.42,0,0,0,5.54-1.05,5.74,5.74,0,0,0,2.54-1.64,1.87,1.87,0,0,0,.18-2.4c-1-1.45-2.55-1.94-4.3-2.3L57,176.54c.46.15.79.22,1.1.36a19.05,19.05,0,0,1,2.15,1c.7.41.69,1,.06,1.51,0,0-.12,0-.16,0a8.61,8.61,0,0,0-3.88-1.45,2,2,0,0,0-1.33.17,6.12,6.12,0,0,1-5.76.06,2.41,2.41,0,0,0-1.31-.23,9.07,9.07,0,0,0-3.71,1.24,2.53,2.53,0,0,1-.51.22c-.58-.65-.58-1.1.14-1.52a20.27,20.27,0,0,1,2.32-1c.28-.12.56-.21.95-.35l-.66-1.06m5.55,12c-.29-.08-.57-.13-.84-.23l-13.66-5L37,182a1.06,1.06,0,0,1-.53-1.71c.32-.52.66-1,1-1.55L48,163.22c.91-1.35,1.8-2.71,2.73-4s1.65-1.28,2.54,0l6.47,9.64q3.27,4.84,6.56,9.68c.36.53.72,1.06,1.06,1.61.54.86.38,1.5-.56,1.9-1.26.53-2.56,1-3.84,1.45l-7.23,2.66c-1,.35-1.92.71-2.89,1-.3.1-.61.15-.92.22"/><line class="cls-6" x1="448.53" y1="127.21" x2="448.53" y2="67.65"/><path class="cls-7" d="M446.65,60a5.67,5.67,0,0,0-2.22-1.44"/><line class="cls-8" x1="436.1" y1="58.09" x2="290.52" y2="58.09"/><path class="cls-9" d="M287.67,58.09h0m154.14,0h0m6.72,6.72h0m0,68.07h0"/><polygon class="cls-2" points="283.26 58.09 289.37 63.77 289.37 52.42 283.26 58.09"/><line class="cls-10" x1="50.95" y1="122.67" x2="50.95" y2="67.62"/><path class="cls-7" d="M52.83,59.85a5.54,5.54,0,0,1,2.22-1.43"/><line class="cls-11" x1="63.32" y1="58" x2="213.29" y2="58"/><path class="cls-9" d="M216.12,58h0M57.67,58h0M51,64.72h0m0,63.75h0"/><polygon class="cls-2" points="50.95 132.88 45.27 126.77 56.62 126.77 50.95 132.88"/></g><line class="cls-12" x1="94.64" y1="174.27" x2="398.31" y2="174.27"/><path class="cls-9" d="M401.21,174.27h0m-312.35,0h0"/><polygon class="cls-2" points="405.62 174.27 399.51 168.59 399.51 179.95 405.62 174.27"/><text class="cls-13" transform="translate(417.14 221.71)">3<tspan class="cls-14" x="6.34" y="0">r</tspan><tspan x="9.96" y="0">d pa</tspan><tspan class="cls-15" x="30.57" y="0">r</tspan><tspan class="cls-16" x="34.7" y="0">t</tspan><tspan x="38.34" y="0">y app</tspan></text><text class="cls-13" transform="translate(409.47 232.26)">(mobile b<tspan class="cls-14" x="43.65" y="0">r</tspan><tspan class="cls-17" x="47.28" y="0">o</tspan><tspan class="cls-18" x="53.08" y="0">w</tspan><tspan x="61.88" y="0">se</tspan><tspan class="cls-19" x="72.51" y="0">r</tspan><tspan x="76.41" y="0">)</tspan></text><text class="cls-13" transform="translate(182.62 188.81)">ap<tspan class="cls-20" x="11.74" y="0">p.</tspan><tspan class="cls-21" x="19.97" y="0">co</tspan><tspan class="cls-22" x="30.89" y="0">m</tspan><tspan x="39.79" y="0">?acces</tspan><tspan class="cls-23" x="70.81" y="0">s</tspan><tspan class="cls-24" x="75.84" y="0">_</tspan><tspan x="80.8" y="0">to</tspan><tspan class="cls-25" x="90.25" y="0">k</tspan><tspan x="95.45" y="0">en=J</tspan><tspan class="cls-26" x="116.79" y="0">W</tspan><tspan x="128.62" y="0">T</tspan></text><text class="cls-13" transform="translate(10.56 225.4)"><tspan class="cls-27">{</tspan><tspan class="cls-28" x="3.63" y="0">data, signatu</tspan><tspan class="cls-18" x="64.52" y="0">r</tspan><tspan class="cls-29" x="68.15" y="0">e</tspan><tspan x="73.66" y="0">}</tspan></text><text class="cls-30" transform="translate(237.01 55.93)">Open in </text><text class="cls-30" transform="translate(268.57 55.93)"> </text><text class="cls-30" transform="translate(239.43 66.49)">u<tspan class="cls-31" x="4.71" y="0">P</tspan><tspan x="10" y="0">o</tspan><tspan class="cls-32" x="14.67" y="0">r</tspan><tspan class="cls-33" x="17.96" y="0">t</tspan><tspan x="20.83" y="0">?</tspan></text><text class="cls-34" transform="translate(223.01 36.51)">!</text><g class="cls-3"><path class="cls-4" d="M384.14,47.44a10.56,10.56,0,1,0-10.56-10.56,10.56,10.56,0,0,0,10.56,10.56"/></g><text class="cls-35" transform="translate(380.1 41.68)">1</text><g class="cls-3"><path class="cls-4" d="M251.87,22a10.56,10.56,0,1,0-10.56-10.56A10.56,10.56,0,0,0,251.87,22"/></g><text class="cls-35" transform="translate(248.03 16.23)">2</text><g class="cls-3"><path class="cls-4" d="M120.62,47.44a10.56,10.56,0,1,0-10.56-10.56,10.56,10.56,0,0,0,10.56,10.56"/></g><text class="cls-35" transform="translate(116.78 41.68)">3</text><g class="cls-3"><path class="cls-4" d="M10.56,183.47A10.56,10.56,0,1,0,0,172.91a10.56,10.56,0,0,0,10.56,10.56"/></g><text class="cls-35" transform="translate(5.76 177.71)">4</text><g class="cls-3"><path class="cls-4" d="M253,168.14a10.56,10.56,0,1,0-10.56-10.56A10.56,10.56,0,0,0,253,168.14"/></g><text class="cls-35" transform="translate(249.15 162.38)">5</text><g class="cls-3"><path class="cls-2" d="M237.36,33.37H272.7a5.57,5.57,0,0,1,5.49,5.7V74.89a5.57,5.57,0,0,1-5.49,5.7H230.3a5.57,5.57,0,0,1-5.5-5.7V44.77A12.74,12.74,0,0,0,237.24,33.4l.12,0m-12.56-13a11.18,11.18,0,0,1,11,11.39,11,11,0,1,1-22,0,11.18,11.18,0,0,1,11-11.39m0-1.63a12.82,12.82,0,0,0-12.57,13,12.88,12.88,0,0,0,11,12.9.29.29,0,0,0,0,.13V74.89a7.21,7.21,0,0,0,7.07,7.33h42.4a7.2,7.2,0,0,0,7.06-7.33V39.07a7.2,7.2,0,0,0-7.06-7.33H237.36a12.81,12.81,0,0,0-12.56-13"/></g></svg>