<svg id="Layer_1" data-name="Layer 1" xmlns="http://www.w3.org/2000/svg" xmlns:xlink="http://www.w3.org/1999/xlink" viewBox="0 0 591.07 545.89"><defs><style>.cls-1,.cls-10,.cls-11,.cls-12,.cls-13,.cls-14,.cls-15,.cls-16,.cls-17,.cls-18,.cls-19,.cls-20,.cls-21,.cls-22,.cls-23,.cls-24,.cls-57,.cls-58,.cls-7,.cls-8,.cls-9{fill:none;}.cls-2{clip-path:url(#clip-path);}.cls-3{fill:#eeeaf7;}.cls-4{fill:#34344f;}.cls-25,.cls-26,.cls-38,.cls-5,.cls-52{fill:#5f32b7;}.cls-51,.cls-6{fill:#fff;}.cls-10,.cls-11,.cls-12,.cls-13,.cls-14,.cls-15,.cls-16,.cls-17,.cls-18,.cls-19,.cls-20,.cls-21,.cls-22,.cls-23,.cls-24,.cls-57,.cls-58,.cls-7,.cls-8,.cls-9{stroke:#34344f;stroke-linecap:round;stroke-linejoin:round;stroke-width:1.92px;}.cls-7{stroke-dasharray:0 5.67;}.cls-8{stroke-dasharray:0 5.33;}.cls-9{stroke-dasharray:0 5.71;}.cls-11{stroke-dasharray:0 5.8;}.cls-12{stroke-dasharray:0 5.66;}.cls-13{stroke-dasharray:0 4.96;}.cls-14{stroke-dasharray:0 5.66;}.cls-15{stroke-dasharray:0 5.48;}.cls-16{stroke-dasharray:0 5.78;}.cls-17{stroke-dasharray:0 5.85;}.cls-18{stroke-dasharray:0 5.73;}.cls-19{stroke-dasharray:0 6.15;}.cls-20{stroke-dasharray:0 4.76;}.cls-21{stroke-dasharray:0 5.74;}.cls-22{stroke-dasharray:0 5.84;}.cls-23{stroke-dasharray:0 5.74;}.cls-24{stroke-dasharray:0 5.51;}.cls-25,.cls-26{font-size:10.56px;}.cls-25,.cls-52{font-family:NunitoSans-SemiBold, Nunito Sans;}.cls-25,.cls-51,.cls-52{font-weight:700;}.cls-26,.cls-38{font-family:NunitoSans-Regular, Nunito Sans;}.cls-27{letter-spacing:-0.01em;}.cls-28{letter-spacing:0em;}.cls-29{letter-spacing:0.04em;}.cls-30{letter-spacing:0.01em;}.cls-31{letter-spacing:0em;}.cls-32{letter-spacing:-0.04em;}.cls-33{letter-spacing:-0.03em;}.cls-34{letter-spacing:0.04em;}.cls-35{letter-spacing:0em;}.cls-36{letter-spacing:0em;}.cls-37{letter-spacing:0em;}.cls-38{font-size:7.68px;}.cls-39{letter-spacing:-0.01em;}.cls-40{letter-spacing:0em;}.cls-41{letter-spacing:0em;}.cls-42{letter-spacing:-0.02em;}.cls-43{letter-spacing:0em;}.cls-44{letter-spacing:0.04em;}.cls-45{letter-spacing:-0.01em;}.cls-46{letter-spacing:-0.01em;}.cls-47{letter-spacing:0em;}.cls-48{letter-spacing:0em;}.cls-49{letter-spacing:0em;}.cls-50{letter-spacing:-0.01em;}.cls-51{font-size:13.44px;font-family:NunitoSans-Bold, Nunito Sans;}.cls-52{font-size:6.97px;}.cls-53{letter-spacing:0em;}.cls-54{letter-spacing:0em;}.cls-55{letter-spacing:0em;}.cls-56{letter-spacing:-0.01em;}.cls-57{stroke-dasharray:0 5.07;}.cls-58{stroke-dasharray:0 5.68;}</style><clipPath id="clip-path"><rect class="cls-1" width="591.07" height="545.89"/></clipPath></defs><title>Doc Diagrams</title><g class="cls-2"><path class="cls-3" d="M49.67,330.67s-14.4,0-14.4,14.4V531.49s0,14.4,14.4,14.4H498.23s14.4,0,14.4-14.4V345.07s0-14.4-14.4-14.4Z"/></g><path class="cls-4" d="M486.51,121.33H420.73v-6.81h65.78Zm-68.05,2.26h70.32V112.25H418.46Z"/><rect class="cls-4" x="423" y="116.79" width="2.27" height="2.27"/><rect class="cls-4" x="427.54" y="116.79" width="2.27" height="2.27"/><rect class="cls-4" x="432.07" y="116.79" width="2.27" height="2.27"/><polygon class="cls-4" points="486.51 180.3 420.73 180.3 420.73 125.86 418.46 125.86 418.46 182.57 488.78 182.57 488.78 125.86 486.51 125.86 486.51 180.3"/><g class="cls-2"><path class="cls-5" d="M453.62,147.41a4.54,4.54,0,1,1-4.53,4.54,4.55,4.55,0,0,1,4.53-4.54m-2.27-14.74a2.27,2.27,0,1,1,2.27,2.27,2.27,2.27,0,0,1-2.27-2.27m2.27,38.56a1.14,1.14,0,1,1,1.14-1.14,1.14,1.14,0,0,1-1.14,1.14m15.15-29.34a1.16,1.16,0,0,1,.57-.15,1.12,1.12,0,0,1,1,.57,1.13,1.13,0,1,1-1.55-.42m-.41,18.56a2.23,2.23,0,0,1,1.37-1,2.46,2.46,0,0,1,.59-.08,2.2,2.2,0,0,1,1.14.31,2.27,2.27,0,0,1,.83,3.09,2.29,2.29,0,0,1-1.38,1.06,2.2,2.2,0,0,1-1.72-.23,2.26,2.26,0,0,1-.83-3.1m-29.24,1.73a2.28,2.28,0,0,1-1.06,1.37,2.21,2.21,0,0,1-1.72.23,2.24,2.24,0,0,1-1.38-1.06,2.29,2.29,0,0,1-.23-1.72,2.33,2.33,0,0,1,1.06-1.38,2.28,2.28,0,0,1,1.13-.3,2,2,0,0,1,.59.08,2.22,2.22,0,0,1,1.38,1,2.32,2.32,0,0,1,.23,1.73m-.23-18.74a1.14,1.14,0,0,1-1.55.42,1.14,1.14,0,1,1,1.55-.42m.72-3.51a3.4,3.4,0,1,0-3.4,5.89,3.33,3.33,0,0,0,1.69.46,3.45,3.45,0,0,0,2.2-.83l7.15,4.13a6.75,6.75,0,0,0,0,4.74l-7.1,4.1a4.52,4.52,0,0,0-7.61,2,4.57,4.57,0,0,0,.45,3.45,4.51,4.51,0,0,0,2.76,2.11,4.79,4.79,0,0,0,1.18.16,4.55,4.55,0,0,0,4.38-3.37,4.47,4.47,0,0,0,0-2.38l7.1-4.1a6.84,6.84,0,0,0,4.11,2.37v8.25a3.41,3.41,0,1,0,2.27,0v-8.25a6.81,6.81,0,0,0,4.1-2.37l7.1,4.1a4.57,4.57,0,0,0,0,2.38,4.51,4.51,0,0,0,2.11,2.76,4.56,4.56,0,0,0,2.26.61,4.3,4.3,0,0,0,1.18-.16,4.53,4.53,0,1,0-4.39-7.55l-7.11-4.1a6.6,6.6,0,0,0,0-4.74l7.16-4.13a3.33,3.33,0,0,0,3.89.37h0a3.4,3.4,0,1,0-3.4-5.89,3.38,3.38,0,0,0-1.63,3.56l-7.15,4.12a6.75,6.75,0,0,0-4.1-2.36V137a4.54,4.54,0,1,0-2.27,0v8.21a6.77,6.77,0,0,0-4.11,2.36l-7.14-4.12a3.39,3.39,0,0,0-1.63-3.56"/></g><rect class="cls-4" x="466.1" y="125.86" width="18.15" height="2.27"/><rect class="cls-4" x="470.64" y="130.4" width="13.61" height="2.27"/><rect class="cls-4" x="466.1" y="130.4" width="2.27" height="2.27"/><rect class="cls-4" x="481.98" y="134.94" width="2.27" height="2.27"/><rect class="cls-4" x="466.1" y="134.94" width="13.61" height="2.27"/><rect class="cls-4" x="423" y="171.23" width="15.88" height="2.27"/><rect class="cls-4" x="429.8" y="175.77" width="2.27" height="2.27"/><rect class="cls-4" x="436.61" y="175.77" width="2.27" height="2.27"/><rect class="cls-4" x="423" y="175.77" width="2.27" height="2.27"/><polygon class="cls-4" points="467.23 168.96 467.23 178.03 485.38 178.03 485.38 162.16 477.44 162.16 477.44 164.42 483.11 164.42 483.11 175.77 469.5 175.77 469.5 168.96 467.23 168.96"/><rect class="cls-4" x="471.77" y="171.23" width="9.07" height="2.27"/><rect class="cls-4" x="474.04" y="166.69" width="6.8" height="2.27"/><polygon class="cls-4" points="423 141.74 432.07 141.74 432.07 139.47 425.27 139.47 425.27 128.13 438.88 128.13 438.88 137.2 441.15 137.2 441.15 125.86 423 125.86 423 141.74"/><rect class="cls-4" x="427.54" y="130.4" width="9.07" height="2.27"/><rect class="cls-4" x="427.54" y="134.94" width="9.07" height="2.27"/><path class="cls-4" d="M486.51,374.25H420.73v-6.81h65.78Zm-68.05,2.26h70.32V365.17H418.46Z"/><rect class="cls-4" x="423" y="369.71" width="2.27" height="2.27"/><rect class="cls-4" x="427.54" y="369.71" width="2.27" height="2.27"/><rect class="cls-4" x="432.07" y="369.71" width="2.27" height="2.27"/><polygon class="cls-4" points="486.51 433.22 420.73 433.22 420.73 378.78 418.46 378.78 418.46 435.49 488.78 435.49 488.78 378.78 486.51 378.78 486.51 433.22"/><g class="cls-2"><path class="cls-5" d="M453.62,400.33a4.54,4.54,0,1,1-4.53,4.54,4.55,4.55,0,0,1,4.53-4.54m-2.27-14.74a2.27,2.27,0,1,1,2.27,2.27,2.27,2.27,0,0,1-2.27-2.27m2.27,38.56a1.14,1.14,0,1,1,1.14-1.14,1.14,1.14,0,0,1-1.14,1.14m15.15-29.34a1.16,1.16,0,0,1,.57-.15,1.12,1.12,0,0,1,1,.57,1.13,1.13,0,1,1-1.55-.42m-.41,18.56a2.23,2.23,0,0,1,1.37-1.05,2.46,2.46,0,0,1,.59-.08,2.2,2.2,0,0,1,1.14.31,2.27,2.27,0,0,1,.83,3.09,2.29,2.29,0,0,1-1.38,1.06,2.2,2.2,0,0,1-1.72-.23,2.26,2.26,0,0,1-.83-3.1m-29.24,1.73a2.28,2.28,0,0,1-1.06,1.37,2.21,2.21,0,0,1-1.72.23,2.24,2.24,0,0,1-1.38-1.06,2.29,2.29,0,0,1-.23-1.72,2.33,2.33,0,0,1,1.06-1.38,2.28,2.28,0,0,1,1.13-.3,2,2,0,0,1,.59.08,2.22,2.22,0,0,1,1.38,1.05,2.32,2.32,0,0,1,.23,1.73m-.23-18.74a1.14,1.14,0,0,1-1.55.42,1.14,1.14,0,1,1,1.55-.42m.72-3.51a3.4,3.4,0,1,0-3.4,5.89,3.33,3.33,0,0,0,1.69.46,3.45,3.45,0,0,0,2.2-.83l7.15,4.13a6.75,6.75,0,0,0,0,4.74l-7.1,4.1a4.52,4.52,0,0,0-7.61,2,4.57,4.57,0,0,0,.45,3.45,4.51,4.51,0,0,0,2.76,2.11,4.79,4.79,0,0,0,1.18.16,4.55,4.55,0,0,0,4.38-3.37,4.47,4.47,0,0,0,0-2.38l7.1-4.1a6.84,6.84,0,0,0,4.11,2.37v8.25a3.41,3.41,0,1,0,2.27,0v-8.25a6.81,6.81,0,0,0,4.1-2.37l7.1,4.1a4.57,4.57,0,0,0,0,2.38,4.51,4.51,0,0,0,2.11,2.76,4.56,4.56,0,0,0,2.26.61,4.3,4.3,0,0,0,1.18-.16,4.53,4.53,0,1,0-4.39-7.55l-7.11-4.1a6.6,6.6,0,0,0,0-4.74l7.16-4.13a3.33,3.33,0,0,0,3.89.37h0a3.4,3.4,0,1,0-3.4-5.89,3.38,3.38,0,0,0-1.63,3.56l-7.15,4.12a6.75,6.75,0,0,0-4.1-2.36V390a4.54,4.54,0,1,0-2.27,0v8.21a6.77,6.77,0,0,0-4.11,2.36l-7.14-4.12a3.39,3.39,0,0,0-1.63-3.56"/></g><rect class="cls-4" x="466.1" y="378.78" width="18.15" height="2.27"/><rect class="cls-4" x="470.64" y="383.32" width="13.61" height="2.27"/><rect class="cls-4" x="466.1" y="383.32" width="2.27" height="2.27"/><rect class="cls-4" x="481.98" y="387.86" width="2.27" height="2.27"/><rect class="cls-4" x="466.1" y="387.86" width="13.61" height="2.27"/><rect class="cls-4" x="423" y="412.15" width="15.88" height="2.27"/><rect class="cls-4" x="429.8" y="416.69" width="2.27" height="2.27"/><rect class="cls-4" x="436.61" y="416.69" width="2.27" height="2.27"/><rect class="cls-4" x="423" y="416.69" width="2.27" height="2.27"/><polygon class="cls-4" points="467.23 421.88 467.23 430.95 485.38 430.95 485.38 415.08 477.44 415.08 477.44 417.34 483.11 417.34 483.11 428.69 469.5 428.69 469.5 421.88 467.23 421.88"/><rect class="cls-4" x="471.77" y="412.15" width="9.07" height="2.27"/><rect class="cls-4" x="474.04" y="419.61" width="6.8" height="2.27"/><polygon class="cls-4" points="423 394.66 432.07 394.66 432.07 392.39 425.27 392.39 425.27 381.05 438.88 381.05 438.88 390.12 441.15 390.12 441.15 378.78 423 378.78 423 394.66"/><rect class="cls-4" x="427.54" y="383.32" width="9.07" height="2.27"/><rect class="cls-4" x="427.54" y="387.86" width="9.07" height="2.27"/><g class="cls-2"><path class="cls-4" d="M234,129.38a2.82,2.82,0,1,1,2.81-2.81,2.82,2.82,0,0,1-2.81,2.81m0-7.87a5.06,5.06,0,1,0,5.07,5.06,5.07,5.07,0,0,0-5.07-5.06"/><path class="cls-4" d="M279.57,124.88a1.13,1.13,0,1,1-1.13-1.13,1.14,1.14,0,0,1,1.13,1.13"/><path class="cls-4" d="M275.06,124.88a1.13,1.13,0,1,1-1.12-1.13,1.13,1.13,0,0,1,1.12,1.13"/><path class="cls-4" d="M281.81,128.26a1.12,1.12,0,1,1-1.12-1.13,1.12,1.12,0,0,1,1.12,1.13"/><path class="cls-4" d="M277.31,128.26a1.13,1.13,0,1,1-1.13-1.13,1.12,1.12,0,0,1,1.13,1.13"/><path class="cls-4" d="M270.56,124.88a1.13,1.13,0,1,1-1.12-1.13,1.13,1.13,0,0,1,1.12,1.13"/><path class="cls-4" d="M272.81,128.26a1.13,1.13,0,1,1-1.13-1.13,1.12,1.12,0,0,1,1.13,1.13"/><path class="cls-4" d="M266.06,124.88a1.13,1.13,0,1,1-1.13-1.13,1.13,1.13,0,0,1,1.13,1.13"/><path class="cls-4" d="M268.31,128.26a1.13,1.13,0,1,1-1.13-1.13,1.13,1.13,0,0,1,1.13,1.13"/><path class="cls-4" d="M261.56,124.88a1.13,1.13,0,1,1-1.13-1.13,1.14,1.14,0,0,1,1.13,1.13"/><path class="cls-4" d="M263.81,128.26a1.13,1.13,0,1,1-1.13-1.13,1.13,1.13,0,0,1,1.13,1.13"/><path class="cls-4" d="M227.35,136.14a2.94,2.94,0,0,1-2.93-2.94V119.94a2.93,2.93,0,0,1,2.93-2.93h57.16a2.93,2.93,0,0,1,2.93,2.93V133.2a2.94,2.94,0,0,1-2.93,2.94Zm60.09,5.18v13.26a2.93,2.93,0,0,1-2.93,2.94H227.35a2.93,2.93,0,0,1-2.93-2.94V141.32a2.93,2.93,0,0,1,2.93-2.93h57.16a2.93,2.93,0,0,1,2.93,2.93m0,21.39V176a2.93,2.93,0,0,1-2.93,2.93H227.35a2.92,2.92,0,0,1-2.93-2.93V162.71a2.94,2.94,0,0,1,2.93-2.94h57.16a2.94,2.94,0,0,1,2.93,2.94m2.25-29.51V119.94a5.19,5.19,0,0,0-5.18-5.19H227.35a5.2,5.2,0,0,0-5.19,5.19V133.2a5.16,5.16,0,0,0,2,4.06,5.16,5.16,0,0,0-2,4.06v13.26a5.18,5.18,0,0,0,2,4.07,5.14,5.14,0,0,0-2,4.06V176a5.19,5.19,0,0,0,5.19,5.18h57.16a5.19,5.19,0,0,0,5.18-5.18V162.71a5.14,5.14,0,0,0-2-4.06,5.18,5.18,0,0,0,2-4.07V141.32a5.16,5.16,0,0,0-2-4.06,5.16,5.16,0,0,0,2-4.06"/><path class="cls-4" d="M234,166.53a2.81,2.81,0,1,1-2.82,2.81,2.81,2.81,0,0,1,2.82-2.81m0,7.87a5.07,5.07,0,1,0-5.06-5.06A5.07,5.07,0,0,0,234,174.4"/><path class="cls-4" d="M279.57,167.65a1.13,1.13,0,1,1-1.13-1.12,1.13,1.13,0,0,1,1.13,1.12"/><path class="cls-4" d="M275.06,167.65a1.13,1.13,0,1,1-1.12-1.12,1.12,1.12,0,0,1,1.12,1.12"/><path class="cls-4" d="M281.81,171a1.12,1.12,0,1,1-1.12-1.13,1.12,1.12,0,0,1,1.12,1.13"/><path class="cls-4" d="M277.31,171a1.13,1.13,0,1,1-1.13-1.13,1.12,1.12,0,0,1,1.13,1.13"/><path class="cls-4" d="M270.56,167.65a1.13,1.13,0,1,1-1.12-1.12,1.12,1.12,0,0,1,1.12,1.12"/><path class="cls-4" d="M272.81,171a1.13,1.13,0,1,1-1.13-1.13,1.12,1.12,0,0,1,1.13,1.13"/><path class="cls-4" d="M266.06,167.65a1.13,1.13,0,1,1-1.13-1.12,1.12,1.12,0,0,1,1.13,1.12"/><path class="cls-4" d="M268.31,171a1.13,1.13,0,1,1-1.13-1.13,1.13,1.13,0,0,1,1.13,1.13"/><path class="cls-4" d="M261.56,167.65a1.13,1.13,0,1,1-1.13-1.12,1.13,1.13,0,0,1,1.13,1.12"/><path class="cls-4" d="M263.81,171a1.13,1.13,0,1,1-1.13-1.13,1.13,1.13,0,0,1,1.13,1.13"/><path class="cls-4" d="M234,225.38a2.82,2.82,0,1,1,2.81-2.81,2.82,2.82,0,0,1-2.81,2.81m0-7.87a5.06,5.06,0,1,0,5.07,5.06,5.07,5.07,0,0,0-5.07-5.06"/><path class="cls-4" d="M279.57,220.88a1.13,1.13,0,1,1-1.13-1.13,1.14,1.14,0,0,1,1.13,1.13"/><path class="cls-4" d="M275.06,220.88a1.13,1.13,0,1,1-1.12-1.13,1.13,1.13,0,0,1,1.12,1.13"/><path class="cls-4" d="M281.81,224.26a1.12,1.12,0,1,1-1.12-1.13,1.12,1.12,0,0,1,1.12,1.13"/><path class="cls-4" d="M277.31,224.26a1.13,1.13,0,1,1-1.13-1.13,1.12,1.12,0,0,1,1.13,1.13"/><path class="cls-4" d="M270.56,220.88a1.13,1.13,0,1,1-1.12-1.13,1.13,1.13,0,0,1,1.12,1.13"/><path class="cls-4" d="M272.81,224.26a1.13,1.13,0,1,1-1.13-1.13,1.12,1.12,0,0,1,1.13,1.13"/><path class="cls-4" d="M266.06,220.88a1.13,1.13,0,1,1-1.13-1.13,1.13,1.13,0,0,1,1.13,1.13"/><path class="cls-4" d="M268.31,224.26a1.13,1.13,0,1,1-1.13-1.13,1.13,1.13,0,0,1,1.13,1.13"/><path class="cls-4" d="M261.56,220.88a1.13,1.13,0,1,1-1.13-1.13,1.14,1.14,0,0,1,1.13,1.13"/><path class="cls-4" d="M263.81,224.26a1.13,1.13,0,1,1-1.13-1.13,1.13,1.13,0,0,1,1.13,1.13"/><path class="cls-4" d="M227.35,232.14a2.94,2.94,0,0,1-2.93-2.94V215.94a2.93,2.93,0,0,1,2.93-2.93h57.16a2.93,2.93,0,0,1,2.93,2.93V229.2a2.94,2.94,0,0,1-2.93,2.94Zm60.09,5.18v13.26a2.93,2.93,0,0,1-2.93,2.94H227.35a2.93,2.93,0,0,1-2.93-2.94V237.32a2.93,2.93,0,0,1,2.93-2.93h57.16a2.93,2.93,0,0,1,2.93,2.93m0,21.39V272a2.93,2.93,0,0,1-2.93,2.93H227.35a2.92,2.92,0,0,1-2.93-2.93V258.71a2.94,2.94,0,0,1,2.93-2.94h57.16a2.94,2.94,0,0,1,2.93,2.94m2.25-29.51V215.94a5.19,5.19,0,0,0-5.18-5.19H227.35a5.2,5.2,0,0,0-5.19,5.19V229.2a5.16,5.16,0,0,0,2,4.06,5.16,5.16,0,0,0-2,4.06v13.26a5.18,5.18,0,0,0,2,4.07,5.14,5.14,0,0,0-2,4.06V272a5.19,5.19,0,0,0,5.19,5.18h57.16a5.19,5.19,0,0,0,5.18-5.18V258.71a5.14,5.14,0,0,0-2-4.06,5.18,5.18,0,0,0,2-4.07V237.32a5.16,5.16,0,0,0-2-4.06,5.16,5.16,0,0,0,2-4.06"/><path class="cls-4" d="M234,262.53a2.81,2.81,0,1,1-2.82,2.81,2.81,2.81,0,0,1,2.82-2.81m0,7.87a5.07,5.07,0,1,0-5.06-5.06A5.07,5.07,0,0,0,234,270.4"/><path class="cls-4" d="M279.57,263.65a1.13,1.13,0,1,1-1.13-1.12,1.13,1.13,0,0,1,1.13,1.12"/><path class="cls-4" d="M275.06,263.65a1.13,1.13,0,1,1-1.12-1.12,1.12,1.12,0,0,1,1.12,1.12"/><path class="cls-4" d="M281.81,267a1.12,1.12,0,1,1-1.12-1.13,1.12,1.12,0,0,1,1.12,1.13"/><path class="cls-4" d="M277.31,267a1.13,1.13,0,1,1-1.13-1.13,1.12,1.12,0,0,1,1.13,1.13"/><path class="cls-4" d="M270.56,263.65a1.13,1.13,0,1,1-1.12-1.12,1.12,1.12,0,0,1,1.12,1.12"/><path class="cls-4" d="M272.81,267a1.13,1.13,0,1,1-1.13-1.13,1.12,1.12,0,0,1,1.13,1.13"/><path class="cls-4" d="M266.06,263.65a1.13,1.13,0,1,1-1.13-1.12,1.12,1.12,0,0,1,1.13,1.12"/><path class="cls-4" d="M268.31,267a1.13,1.13,0,1,1-1.13-1.13,1.13,1.13,0,0,1,1.13,1.13"/><path class="cls-4" d="M261.56,263.65a1.13,1.13,0,1,1-1.13-1.12,1.13,1.13,0,0,1,1.13,1.12"/><path class="cls-4" d="M263.81,267a1.13,1.13,0,1,1-1.13-1.13,1.13,1.13,0,0,1,1.13,1.13"/><path class="cls-4" d="M38.91,117.92a3.4,3.4,0,0,1,3.4-3.4H71.8a3.4,3.4,0,0,1,3.4,3.4v1.14H38.91Zm0,3.41H75.2v2.26h2.27v-5.67a5.68,5.68,0,0,0-5.67-5.67H42.31a5.68,5.68,0,0,0-5.67,5.67v5.67h2.27Z"/><path class="cls-4" d="M38.91,173.5H75.2v3.4a3.4,3.4,0,0,1-3.4,3.4H42.31a3.4,3.4,0,0,1-3.4-3.4Zm-2.27,3.4a5.67,5.67,0,0,0,5.67,5.67H71.8a5.67,5.67,0,0,0,5.67-5.67v-5.67H36.64Z"/></g><rect class="cls-4" x="51.38" y="175.77" width="11.34" height="2.27"/><g class="cls-2"><path class="cls-5" d="M41.33,124s-7.2,0-7.2,7.2v31.46s0,7.2,7.2,7.2H72.78s7.2,0,7.2-7.2V131.15s0-7.2-7.2-7.2Z"/><path class="cls-6" d="M57.1,141.72a4.92,4.92,0,1,0,5,5,5,5,0,0,0-5-5m-5.63,7.39a6.91,6.91,0,0,0-3.53,1.34c-1.46,1.3-1.57,2.67,0,3.93.07.05.15.09.21.14A10.05,10.05,0,0,0,52.25,156a26,26,0,0,0,6.48.4,20.42,20.42,0,0,0,5.54-1.05,5.74,5.74,0,0,0,2.54-1.64,1.86,1.86,0,0,0,.18-2.39c-1-1.46-2.55-1.95-4.3-2.31l-.62,1.19c.46.14.79.22,1.1.35a19.05,19.05,0,0,1,2.15,1c.7.41.69,1,.06,1.52,0,0-.12,0-.16,0a8.48,8.48,0,0,0-3.88-1.44,2,2,0,0,0-1.33.16,6.15,6.15,0,0,1-5.76.07,2.33,2.33,0,0,0-1.31-.24,9.07,9.07,0,0,0-3.71,1.24,2.53,2.53,0,0,1-.51.22c-.58-.65-.58-1.1.14-1.52a20.27,20.27,0,0,1,2.32-1.05l1-.35-.66-1m5.55,12c-.29-.07-.57-.13-.84-.22l-13.66-5-.4-.16a1.06,1.06,0,0,1-.53-1.71c.32-.52.66-1,1-1.55L53.1,136.9c.91-1.35,1.8-2.7,2.73-4s1.65-1.28,2.54,0c2.16,3.2,4.31,6.42,6.47,9.63s4.37,6.45,6.56,9.68c.36.53.72,1.07,1.06,1.61.54.87.38,1.5-.56,1.9-1.26.53-2.56,1-3.84,1.45l-7.23,2.66c-1,.35-1.92.71-2.89,1.05-.3.1-.61.14-.92.21"/><line class="cls-7" x1="453.62" y1="100.89" x2="453.62" y2="41.33"/><path class="cls-8" d="M451.74,33.63a5.67,5.67,0,0,0-2.22-1.44"/><line class="cls-9" x1="441.19" y1="31.78" x2="295.61" y2="31.78"/><path class="cls-10" d="M292.76,31.78h0m154.14,0h0m6.72,6.72h0m0,68.06h0"/><polygon class="cls-4" points="288.35 31.78 294.46 37.45 294.46 26.1 288.35 31.78"/><line class="cls-11" x1="56.04" y1="96.35" x2="56.04" y2="41.3"/><path class="cls-8" d="M57.92,33.53a5.54,5.54,0,0,1,2.22-1.43"/><line class="cls-12" x1="68.41" y1="31.68" x2="218.38" y2="31.68"/><path class="cls-10" d="M221.21,31.68h0m-158.45,0h0M56,38.4h0m0,63.75h0"/><polygon class="cls-4" points="56.04 106.56 50.36 100.45 61.71 100.45 56.04 106.56"/><line class="cls-13" x1="67.07" y1="214.59" x2="67.07" y2="222.03"/><path class="cls-8" d="M69,229.38a5.54,5.54,0,0,0,2.22,1.43"/><line class="cls-14" x1="79.45" y1="231.23" x2="212.56" y2="231.23"/><path class="cls-10" d="M215.39,231.23h0m-141.6,0h0m-6.72-6.72h0m0-14.88h0"/><polygon class="cls-4" points="67.07 205.22 61.39 211.33 72.75 211.33 67.07 205.22"/><line class="cls-15" x1="48.08" y1="213.1" x2="48.08" y2="248.69"/><path class="cls-8" d="M50,256.3a5.54,5.54,0,0,0,2.22,1.43"/><line class="cls-16" x1="60.58" y1="258.15" x2="208.09" y2="258.15"/><path class="cls-10" d="M211,258.15h0m-156.18,0h0m-6.72-6.72h0m0-43.81h0"/><polygon class="cls-4" points="215.39 258.15 209.28 252.47 209.28 263.83 215.39 258.15"/></g><line class="cls-17" x1="99.8" y1="147.95" x2="208.06" y2="147.95"/><path class="cls-10" d="M211,148h0M94,148h0"/><polygon class="cls-4" points="215.39 147.95 209.28 142.28 209.28 153.63 215.39 147.95"/><line class="cls-18" x1="305.65" y1="135.95" x2="411.68" y2="135.95"/><path class="cls-10" d="M414.55,136h0m-114.63,0h0"/><polygon class="cls-4" points="295.51 135.95 301.61 141.63 301.61 130.28 295.51 135.95"/><line class="cls-18" x1="301.24" y1="159.95" x2="407.27" y2="159.95"/><path class="cls-10" d="M410.14,160h0m-114.63,0h0"/><polygon class="cls-4" points="414.55 159.95 408.44 154.28 408.44 165.63 414.55 159.95"/><g class="cls-2"><line class="cls-19" x1="254.47" y1="353.93" x2="254.47" y2="369.3"/><path class="cls-20" d="M252.78,376.72a4.92,4.92,0,0,1-2,1.28"/><line class="cls-21" x1="242.73" y1="378.38" x2="182.45" y2="378.38"/><path class="cls-10" d="M179.58,378.38h0m68.89,0h0m6-6h0m0-24.6h0"/><polygon class="cls-4" points="175.17 378.38 181.28 384.05 181.28 372.7 175.17 378.38"/></g><line class="cls-22" x1="186.77" y1="488.38" x2="218.9" y2="488.38"/><path class="cls-10" d="M221.83,488.38h0m-40.9,0h0"/><polygon class="cls-4" points="226.24 488.38 220.13 482.71 220.13 494.06 226.24 488.38"/><line class="cls-22" x1="150.65" y1="416.35" x2="150.65" y2="448.48"/><path class="cls-10" d="M150.65,451.4h0m0-40.89h0"/><polygon class="cls-4" points="150.65 455.81 156.33 449.71 144.97 449.71 150.65 455.81"/><line class="cls-23" x1="453.62" y1="194.86" x2="453.62" y2="347.11"/><path class="cls-10" d="M453.62,350h0m0-160.86h0"/><polygon class="cls-4" points="453.62 354.39 459.3 348.28 447.95 348.28 453.62 354.39"/><line class="cls-24" x1="254.56" y1="288.69" x2="254.56" y2="307.97"/><path class="cls-10" d="M254.56,310.72h0m0-27.54h0"/><polygon class="cls-4" points="254.56 278.77 248.88 284.88 260.24 284.88 254.56 278.77"/><polygon class="cls-4" points="254.56 315.13 260.24 309.02 248.88 309.02 254.56 315.13"/><text class="cls-25" transform="translate(235.17 150.84)">Chasqui</text><text class="cls-25" transform="translate(238.58 246.84)">Sensui</text><polygon class="cls-6" points="274.06 327.6 254.21 318.82 234.77 327.32 252.46 335.22 254.56 336.37 257.5 334.93 261.19 333.15 274.06 327.6"/><text class="cls-26" transform="translate(494.62 152.75)">3<tspan class="cls-27" x="6.34" y="0">r</tspan><tspan class="cls-28" x="9.96" y="0">d pa</tspan><tspan class="cls-29" x="30.57" y="0">r</tspan><tspan class="cls-30" x="34.7" y="0">t</tspan><tspan x="38.35" y="0">y dapp</tspan></text><text class="cls-26" transform="translate(324.28 395.11)">3<tspan class="cls-27" x="6.34" y="0">r</tspan><tspan x="9.96" y="0">d pa</tspan><tspan class="cls-29" x="30.57" y="0">r</tspan><tspan class="cls-31" x="34.7" y="0">t</tspan><tspan x="38.34" y="0">y dap</tspan><tspan class="cls-32" x="64.38" y="0">p</tspan><tspan class="cls-33" x="70.15" y="0">’</tspan><tspan x="72.27" y="0">s</tspan></text><text class="cls-26" transform="translate(401.61 395.11)"> </text><text class="cls-26" transform="translate(324.27 405.67)">sma<tspan class="cls-34" x="19.66" y="0">r</tspan><tspan class="cls-35" x="23.8" y="0">t cont</tspan><tspan class="cls-36" x="50.62" y="0">r</tspan><tspan x="54.32" y="0">a</tspan><tspan class="cls-37" x="59.92" y="0">c</tspan><tspan x="64.99" y="0">t</tspan></text><text class="cls-38" transform="translate(41.75 195.92)">Signs TX</text><text class="cls-38" transform="translate(68.72 384.05)">Relay <tspan class="cls-39" x="21.1" y="0">C</tspan><tspan x="26.22" y="0">ont</tspan><tspan class="cls-40" x="37.45" y="0">r</tspan><tspan x="40.14" y="0">a</tspan><tspan class="cls-41" x="44.21" y="0">c</tspan><tspan x="47.9" y="0">t</tspan></text><text class="cls-38" transform="translate(66.31 490.02)">u<tspan class="cls-42" x="4.31" y="0">P</tspan><tspan class="cls-43" x="9.15" y="0">o</tspan><tspan class="cls-44" x="13.41" y="0">r</tspan><tspan x="16.42" y="0">t </tspan><tspan class="cls-45" x="21.01" y="0">C</tspan><tspan class="cls-43" x="26.14" y="0">ont</tspan><tspan class="cls-46" x="37.38" y="0">r</tspan><tspan x="40.02" y="0">oller </tspan></text><text class="cls-38" transform="translate(78.9 498.42)"><tspan class="cls-46">C</tspan><tspan x="5.13" y="0">ont</tspan><tspan class="cls-40" x="16.37" y="0">r</tspan><tspan x="19.05" y="0">act</tspan></text><text class="cls-38" transform="translate(229.08 528.57)"><tspan class="cls-45">Pro</tspan><tspan class="cls-47" x="11.72" y="0">x</tspan><tspan x="15.66" y="0">y </tspan><tspan class="cls-46" x="21.59" y="0">C</tspan><tspan x="26.72" y="0">ont</tspan><tspan class="cls-48" x="37.95" y="0">r</tspan><tspan class="cls-43" x="40.64" y="0">a</tspan><tspan class="cls-49" x="44.71" y="0">c</tspan><tspan x="48.4" y="0">t</tspan></text><text class="cls-38" transform="translate(280.04 528.58)"> </text><text class="cls-38" transform="translate(229.47 536.98)">(<tspan class="cls-50" x="2.41" y="0">E</tspan><tspan x="6.8" y="0">TH Add</tspan><tspan class="cls-46" x="33.71" y="0">r</tspan><tspan x="36.36" y="0">ess)</tspan></text><g class="cls-2"><path class="cls-5" d="M353.66,21.12A10.56,10.56,0,1,0,343.1,10.56a10.56,10.56,0,0,0,10.56,10.56"/><text class="cls-51" transform="translate(349.63 15.36)">1</text><path class="cls-5" d="M354.55,128.64A10.56,10.56,0,1,0,344,118.08a10.56,10.56,0,0,0,10.56,10.56"/></g><text class="cls-51" transform="translate(350.71 122.88)">2</text><g class="cls-2"><path class="cls-5" d="M149.87,22.89a10.56,10.56,0,1,0-10.56-10.56,10.56,10.56,0,0,0,10.56,10.56"/></g><text class="cls-51" transform="translate(146.03 17.13)">3</text><g class="cls-2"><path class="cls-5" d="M10.56,156.06A10.56,10.56,0,1,0,0,145.5a10.56,10.56,0,0,0,10.56,10.56"/></g><text class="cls-51" transform="translate(5.76 150.3)">4</text><g class="cls-2"><path class="cls-5" d="M133.57,255.25A10.56,10.56,0,1,0,123,244.69a10.56,10.56,0,0,0,10.56,10.56"/></g><text class="cls-51" transform="translate(129.73 249.49)">5</text><g class="cls-2"><path class="cls-5" d="M203.1,432.68a10.56,10.56,0,1,0-10.56-10.56,10.56,10.56,0,0,0,10.56,10.56"/></g><text class="cls-51" transform="translate(199.07 426.92)">8</text><g class="cls-2"><path class="cls-5" d="M354.55,187.2A10.56,10.56,0,1,0,344,176.64a10.56,10.56,0,0,0,10.56,10.56"/></g><text class="cls-51" transform="translate(350.51 181.44)">7</text><g class="cls-2"><path class="cls-5" d="M368,459.35a10.56,10.56,0,1,0-10.56-10.56A10.56,10.56,0,0,0,368,459.35"/></g><text class="cls-51" transform="translate(364.18 453.59)">9</text><text class="cls-52" transform="translate(245.37 330.2)"><tspan class="cls-53">In</tspan><tspan class="cls-54" x="5.85" y="0">f</tspan><tspan class="cls-55" x="8.21" y="0">u</tspan><tspan class="cls-56" x="12.16" y="0">r</tspan><tspan x="14.67" y="0">a</tspan></text><path class="cls-4" d="M273.54,334l-19,8.12-19-8.12,6.18-2.63,12.8,5.47,12.8-5.47Zm-38-6.67,19-8.08,19,8.08-19,8.12Zm41.23,0-22.25-9.46L232.3,327.3l7.83,3.35L232.3,334l9.46,4,12.8,5.47L269,337.32l7.82-3.35L269,330.65Z"/><rect class="cls-3" x="464.86" y="390.11" width="30" height="46.37"/><path class="cls-4" d="M283,9.24H228.85V3.64H283Zm-56,1.87h57.9V1.77H227Z"/><rect class="cls-4" x="230.72" y="5.51" width="1.87" height="1.87"/><rect class="cls-4" x="234.45" y="5.51" width="1.87" height="1.87"/><rect class="cls-4" x="238.19" y="5.51" width="1.87" height="1.87"/><polygon class="cls-4" points="283.01 57.8 228.85 57.8 228.85 12.98 226.98 12.98 226.98 59.67 284.88 59.67 284.88 12.98 283.01 12.98 283.01 57.8"/><path class="cls-5" d="M276.77,29.22h-12.5V16.63h12.5Zm0,23.08H249.68V37.61H235.09V31.32h14.59V16.63h12.5V31.32h14.59Zm-29.18,0h-12.5V39.71h12.5Zm-12.5-35.67h12.5V29.22h-12.5ZM233,54.4h45.86V14.53H233Z"/><path class="cls-5" d="M239.25,20.83h4.17V25h-4.17Zm-2.08,6.29h8.34V18.73h-8.34Z"/><path class="cls-5" d="M243.42,48.1h-4.17V43.91h4.17Zm2.09-6.29h-8.34V50.2h8.34Z"/><path class="cls-5" d="M272.6,25h-4.17V20.83h4.17Zm2.09-6.29h-8.34v8.39h8.34Z"/><polygon class="cls-5" points="255.93 25.02 253.84 25.02 253.84 18.73 251.76 18.73 251.76 27.12 255.93 27.12 255.93 25.02"/><polygon class="cls-5" points="258.01 27.12 260.1 27.12 260.1 18.73 255.93 18.73 255.93 20.83 258.01 20.83 258.01 27.12"/><polygon class="cls-5" points="253.84 35.51 255.93 35.51 255.93 29.22 251.76 29.22 251.76 31.32 253.84 31.32 253.84 35.51"/><polygon class="cls-5" points="260.1 29.22 258.01 29.22 258.01 39.71 266.35 39.71 266.35 37.61 260.1 37.61 260.1 29.22"/><polygon class="cls-5" points="270.52 41.81 268.44 41.81 268.44 46 272.6 46 272.6 50.2 274.69 50.2 274.69 43.9 270.52 43.9 270.52 41.81"/><rect class="cls-5" x="268.43" y="37.61" width="6.25" height="2.1"/><polygon class="cls-5" points="255.93 48.1 251.76 48.1 251.76 50.2 258.01 50.2 258.01 46 255.93 46 255.93 48.1"/><polygon class="cls-5" points="255.93 43.91 260.1 43.91 260.1 50.2 262.18 50.2 262.18 41.81 255.93 41.81 255.93 43.91"/><rect class="cls-5" x="264.27" y="41.81" width="2.08" height="8.39"/><rect class="cls-5" x="237.17" y="33.41" width="12.51" height="2.1"/><rect class="cls-5" x="262.18" y="33.41" width="8.34" height="2.1"/><rect class="cls-5" x="272.6" y="33.41" width="2.08" height="2.1"/><rect class="cls-5" x="251.76" y="37.61" width="2.08" height="8.39"/><rect class="cls-5" x="255.93" y="14.53" width="22.93" height="39.86"/><g class="cls-2"><path class="cls-6" d="M268.09,20.23a4.71,4.71,0,0,0-4.7,4.7l0,9.7a4.69,4.69,0,0,0,4,4.64v0a4.9,4.9,0,0,0,.67.07,4.77,4.77,0,0,0,.67-.06V36.51a2.15,2.15,0,0,1-.67.13,2,2,0,0,1-2-2l0-9.71a2,2,0,0,1,4,0v4a5.92,5.92,0,0,1,2.68,1.9V24.91a4.66,4.66,0,0,0-4.68-4.68m.65,9.76h0a3.49,3.49,0,0,0-1.34,0v2.75a2.15,2.15,0,0,1,.67-.13,2,2,0,0,1,2,2l0,9.39a2,2,0,1,1-4,0v-3.7a6,6,0,0,1-2.68-1.89V44a4.69,4.69,0,0,0,9.38,0l0-9.38a4.67,4.67,0,0,0-4-4.63"/></g><path class="cls-4" d="M467.91,440.26V393h24.48v11.81H504.2v35.45Zm26.16-46.07,8.94,8.93h-8.94Zm-.49-2.88H466.22V442h39.67V403.62Z"/><g class="cls-2"><path class="cls-4" d="M474.66,405.66h7.6a.85.85,0,0,0,0-1.69h-7.6a.85.85,0,0,0,0,1.69"/><path class="cls-4" d="M474.66,412.41h4.22a.85.85,0,1,0,0-1.69h-4.22a.85.85,0,0,0,0,1.69"/><path class="cls-4" d="M487.32,412.41h5.91a.85.85,0,0,0,0-1.69h-5.91a.85.85,0,0,0,0,1.69"/><path class="cls-4" d="M482.5,411a.82.82,0,0,0-.24.59.89.89,0,0,0,.24.61.94.94,0,0,0,.6.24.86.86,0,0,0,.6-.25.9.9,0,0,0,.25-.6.86.86,0,0,0-.25-.59.87.87,0,0,0-1.2,0"/><path class="cls-4" d="M497.45,412.41a.82.82,0,0,0,.84-.85.84.84,0,1,0-1.68,0,.82.82,0,0,0,.84.85"/><path class="cls-4" d="M484.79,417.47h-5.91a.85.85,0,0,0,0,1.69h5.91a.85.85,0,0,0,0-1.69"/><path class="cls-4" d="M474.66,419.16a.89.89,0,0,0,.6-.24.85.85,0,0,0,0-1.2.87.87,0,0,0-1.2,0,.83.83,0,0,0-.24.6.82.82,0,0,0,.84.84"/><path class="cls-4" d="M477.32,413.21c-1.85,1-2.47,2.8-2.7,4.71l-1.05-.88c-.83-.69-2,.5-1.19,1.2s1.58,1.32,2.36,2a.86.86,0,0,0,1.45-.59c.06-1.84.14-4,2-5,1-.51.11-2-.85-1.46"/><path class="cls-4" d="M482.93,416.58c-1.17.27-2.5,1.76-3.32.09-.49-1-1.94-.12-1.46.85a2.87,2.87,0,0,0,3.68,1.44c.34-.14,1.63-1.11,1.91-.61a.85.85,0,0,0,1.46-.85,2,2,0,0,0-2.27-.92"/><path class="cls-4" d="M499.62,423a2.24,2.24,0,0,0-1.31,1.25,2.2,2.2,0,0,0,.05,1.81.53.53,0,0,1-.11.62.57.57,0,0,1-.47.14l-.19-.06-.24-.08-.17-.06-.26,0-.2,0-.24,0a.75.75,0,0,0-.21,0,2.2,2.2,0,0,0-.44.12.6.6,0,0,1-.11.06,2.38,2.38,0,0,0-.31.17,1.93,1.93,0,0,0-.31.27l0,0a2.13,2.13,0,0,0-.48.79.51.51,0,0,1-.51.35.52.52,0,0,1-.51-.36,2.17,2.17,0,0,0-.48-.78l0,0a2.69,2.69,0,0,0-.32-.27c-.09-.06-.2-.11-.29-.16l-.12-.07h-.06a1.73,1.73,0,0,0-.37-.11l-.31,0h-.12a2,2,0,0,0-.88.19l-.2.05a.49.49,0,0,1-.48-.14.5.5,0,0,1-.11-.61,2.24,2.24,0,0,0,0-1.81,2.21,2.21,0,0,0-1.31-1.25.54.54,0,0,1,0-1,2.24,2.24,0,0,0,1.27-3.06.5.5,0,0,1,.11-.61.51.51,0,0,1,.61-.11,2.21,2.21,0,0,0,3.05-1.26.52.52,0,0,1,.51-.36.51.51,0,0,1,.51.36,2.23,2.23,0,0,0,3.06,1.26.54.54,0,0,1,.72.72,2.23,2.23,0,0,0,1.26,3.06.53.53,0,0,1,0,1m-5.55,9.27-2.53,2.54V428.3h0l.11,0a.79.79,0,0,1,.16.1.52.52,0,0,1,.14.22,2.23,2.23,0,0,0,4.2,0,.53.53,0,0,1,.15-.22.56.56,0,0,1,.15-.1l.11,0h0v6.55Zm6.12-11.87a.51.51,0,0,1-.32-.31.53.53,0,0,1,0-.43,2.23,2.23,0,0,0-3-3,.56.56,0,0,1-.44,0,.52.52,0,0,1-.3-.32,2.23,2.23,0,0,0-4.2,0,.52.52,0,0,1-.3.32.55.55,0,0,1-.44,0,2.22,2.22,0,0,0-3,3,.54.54,0,0,1-.3.75,2.23,2.23,0,0,0,0,4.2.56.56,0,0,1,.32.3.56.56,0,0,1,0,.44,2.23,2.23,0,0,0,.44,2.53,2.27,2.27,0,0,0,1.15.61v10.4l4.22-4.22,4.22,4.22v-10.4a2.23,2.23,0,0,0,1.59-3.14.55.55,0,0,1,0-.44.5.5,0,0,1,.32-.3,2.23,2.23,0,0,0,0-4.2"/></g><path class="cls-4" d="M129.49,403.74v-54H158v13.51h13.78v40.52ZM160,351.07l10.42,10.22H160Zm-.58-3.29h-31.9v57.89h46.26V361.85Z"/><g class="cls-2"><path class="cls-4" d="M137.36,364.18h8.86a1,1,0,1,0,0-1.93h-8.86a1,1,0,1,0,0,1.93"/><path class="cls-4" d="M137.36,371.9h4.92a1,1,0,1,0,0-1.93h-4.92a1,1,0,1,0,0,1.93"/><path class="cls-4" d="M152.13,371.9H159a1,1,0,1,0,0-1.93h-6.89a1,1,0,1,0,0,1.93"/><path class="cls-4" d="M146.51,370.26a.94.94,0,0,0,0,1.36,1,1,0,0,0,.69.28,1,1,0,0,0,.7-.29,1,1,0,0,0,.29-.67,1,1,0,0,0-.29-.69,1,1,0,0,0-1.39,0"/><path class="cls-4" d="M163.94,371.9a1.09,1.09,0,0,0,.7-.28,1,1,0,0,0,.28-.68,1,1,0,0,0-1.68-.69,1,1,0,0,0-.29.69,1,1,0,0,0,.29.68,1.07,1.07,0,0,0,.7.28"/><path class="cls-4" d="M149.17,377.69h-6.89a1,1,0,1,0,0,1.93h6.89a1,1,0,1,0,0-1.93"/><path class="cls-4" d="M137.36,379.62a1.07,1.07,0,0,0,.7-.28,1,1,0,0,0,0-1.37,1,1,0,0,0-1.4,0,1,1,0,0,0-.28.69,1,1,0,0,0,.28.68,1.09,1.09,0,0,0,.7.28"/><path class="cls-4" d="M140.46,386.54c-2.16,1.09-2.88,3.2-3.15,5.38l-1.22-1c-1-.79-2.37.56-1.39,1.36l2.76,2.27a1,1,0,0,0,1.68-.68c.07-2.09.17-4.57,2.31-5.67,1.13-.57.13-2.24-1-1.66"/><path class="cls-4" d="M147,390.38c-1.36.32-2.91,2-3.87.11-.57-1.12-2.26-.14-1.7,1a3.37,3.37,0,0,0,4.29,1.65c.4-.16,1.9-1.26,2.23-.69a1,1,0,0,0,1.7-1,2.36,2.36,0,0,0-2.65-1.06"/><path class="cls-4" d="M166.47,384.06a2.57,2.57,0,0,0-1.53,1.43,2.49,2.49,0,0,0,.06,2.07.58.58,0,0,1-.13.7.63.63,0,0,1-.55.16l-.22-.07-.28-.09-.2-.06-.3,0-.23,0a1.42,1.42,0,0,0-.29,0,1.94,1.94,0,0,0-.24,0,2.38,2.38,0,0,0-.52.15l-.12.06-.36.19a2.67,2.67,0,0,0-.36.31l0,0a2.55,2.55,0,0,0-.57.91.63.63,0,0,1-1.18,0,2.75,2.75,0,0,0-.57-.9l0,0a2.07,2.07,0,0,0-.72-.5l-.14-.07-.06,0a2.44,2.44,0,0,0-.44-.13l-.36,0H157a2.32,2.32,0,0,0-1,.22l-.22.07a.62.62,0,0,1-.57-.16.59.59,0,0,1-.13-.71,2.47,2.47,0,0,0,.06-2.06,2.57,2.57,0,0,0-1.53-1.43.61.61,0,0,1,0-1.16,2.59,2.59,0,0,0,1.53-1.42,2.52,2.52,0,0,0-.06-2.08.56.56,0,0,1,.13-.69.59.59,0,0,1,.71-.13,2.63,2.63,0,0,0,2.11.05,2.58,2.58,0,0,0,1.46-1.49.63.63,0,0,1,1.18,0,2.59,2.59,0,0,0,1.45,1.49,2.65,2.65,0,0,0,2.12-.05.59.59,0,0,1,.71.13.57.57,0,0,1,.13.7,2.49,2.49,0,0,0-.06,2.07,2.59,2.59,0,0,0,1.53,1.42.61.61,0,0,1,0,1.16M160,394.66l-2.95,2.9v-7.49h0a.4.4,0,0,1,.13,0,.51.51,0,0,1,.18.11.58.58,0,0,1,.17.25,2.62,2.62,0,0,0,4.9,0,.58.58,0,0,1,.17-.25.51.51,0,0,1,.18-.11l.12,0h0v7.49Zm7.13-13.58a.62.62,0,0,1-.37-.34.62.62,0,0,1,0-.5,2.48,2.48,0,0,0-.51-2.9,2.61,2.61,0,0,0-2.95-.5.64.64,0,0,1-.51,0,.56.56,0,0,1-.35-.36,2.62,2.62,0,0,0-4.9,0,.56.56,0,0,1-.35.36.64.64,0,0,1-.51,0,2.6,2.6,0,0,0-2.95.5,2.47,2.47,0,0,0-.51,2.89.64.64,0,0,1,0,.51.62.62,0,0,1-.37.34,2.53,2.53,0,0,0,0,4.8.62.62,0,0,1,.37.34.64.64,0,0,1,0,.51,2.47,2.47,0,0,0,.51,2.89,2.56,2.56,0,0,0,1.34.7v11.9l4.92-4.83,4.92,4.83v-11.9a2.56,2.56,0,0,0,1.34-.7,2.47,2.47,0,0,0,.51-2.89.64.64,0,0,1,0-.51.62.62,0,0,1,.37-.34,2.53,2.53,0,0,0,0-4.8"/></g><path class="cls-4" d="M129.49,515.4v-54H158v13.51h13.78V515.4ZM160,462.73l10.42,10.21H160Zm-.58-3.29h-31.9v57.89h46.26V473.51Z"/><g class="cls-2"><path class="cls-4" d="M137.36,475.84h8.86a1,1,0,1,0,0-1.93h-8.86a1,1,0,1,0,0,1.93"/><path class="cls-4" d="M137.36,483.56h4.92a1,1,0,1,0,0-1.93h-4.92a1,1,0,1,0,0,1.93"/><path class="cls-4" d="M152.13,483.56H159a1,1,0,1,0,0-1.93h-6.89a1,1,0,1,0,0,1.93"/><path class="cls-4" d="M146.51,481.92a.9.9,0,0,0-.29.67,1,1,0,0,0,.29.69,1,1,0,0,0,.69.28,1,1,0,0,0,.7-1.65,1,1,0,0,0-1.39,0"/><path class="cls-4" d="M163.94,483.56a1.09,1.09,0,0,0,.7-.28,1,1,0,0,0,.28-.69,1,1,0,0,0-.28-.68,1,1,0,0,0-1.4,0,1,1,0,0,0-.29.68,1,1,0,0,0,.29.69,1.07,1.07,0,0,0,.7.28"/><path class="cls-4" d="M149.17,489.35h-6.89a1,1,0,1,0,0,1.93h6.89a1,1,0,1,0,0-1.93"/><path class="cls-4" d="M137.36,491.28a1.07,1.07,0,0,0,.7-.28,1,1,0,0,0,0-1.37,1,1,0,0,0-1.4,0,1,1,0,0,0-.28.69,1,1,0,0,0,.28.68,1.09,1.09,0,0,0,.7.28"/><path class="cls-4" d="M140.46,498.19c-2.16,1.1-2.88,3.21-3.15,5.39l-1.22-1c-1-.8-2.37.56-1.39,1.36l2.76,2.27a1,1,0,0,0,1.68-.68c.07-2.09.17-4.58,2.31-5.67,1.13-.57.13-2.24-1-1.67"/><path class="cls-4" d="M147,502c-1.36.31-2.91,2-3.87.11-.57-1.12-2.26-.14-1.7,1a3.39,3.39,0,0,0,2.62,1.86,3.51,3.51,0,0,0,1.67-.21c.4-.16,1.9-1.27,2.23-.7a1,1,0,0,0,1.7-1A2.36,2.36,0,0,0,147,502"/><path class="cls-4" d="M166.47,495.72a2.59,2.59,0,0,0-1.53,1.42,2.52,2.52,0,0,0,.06,2.08.58.58,0,0,1-.13.7.66.66,0,0,1-.55.16l-.22-.07a2.29,2.29,0,0,0-.28-.09l-.2-.06-.3,0-.23,0a1.42,1.42,0,0,0-.29,0,1,1,0,0,0-.24,0,3.07,3.07,0,0,0-.52.14l-.12.07a3.13,3.13,0,0,0-.36.19,2.67,2.67,0,0,0-.36.31l0,0a2.55,2.55,0,0,0-.57.91.63.63,0,0,1-1.18,0,2.65,2.65,0,0,0-.57-.9l0,0a3.68,3.68,0,0,0-.38-.31,2.79,2.79,0,0,0-.34-.18L158,500h-.06a2.44,2.44,0,0,0-.44-.13l-.36,0H157a2.32,2.32,0,0,0-1,.22l-.22.06a.62.62,0,0,1-.57-.16.57.57,0,0,1-.13-.7,2.49,2.49,0,0,0,.06-2.07,2.59,2.59,0,0,0-1.53-1.42.61.61,0,0,1,0-1.16,2.57,2.57,0,0,0,1.53-1.43,2.5,2.5,0,0,0-.06-2.07.58.58,0,0,1,.13-.7.61.61,0,0,1,.71-.12,2.63,2.63,0,0,0,2.11.05,2.57,2.57,0,0,0,1.46-1.5.63.63,0,0,1,1.18,0,2.58,2.58,0,0,0,1.45,1.5,2.65,2.65,0,0,0,2.12-.05.6.6,0,0,1,.71.12.59.59,0,0,1,.13.71,2.47,2.47,0,0,0-.06,2.06,2.57,2.57,0,0,0,1.53,1.43.61.61,0,0,1,0,1.16M160,506.32l-2.95,2.89v-7.48h0a.7.7,0,0,1,.31.15.53.53,0,0,1,.17.25,2.62,2.62,0,0,0,4.9,0,.53.53,0,0,1,.17-.25.4.4,0,0,1,.18-.11l.12,0h0v7.48Zm7.13-13.58a.62.62,0,0,1-.36-.85,2.47,2.47,0,0,0-.51-2.89,2.61,2.61,0,0,0-2.95-.5.64.64,0,0,1-.51,0,.61.61,0,0,1-.35-.36,2.62,2.62,0,0,0-4.9,0,.61.61,0,0,1-.35.36.64.64,0,0,1-.51,0,2.59,2.59,0,0,0-2.95.5,2.47,2.47,0,0,0-.51,2.89.62.62,0,0,1-.36.85,2.53,2.53,0,0,0,0,4.8.62.62,0,0,1,.37.34.64.64,0,0,1,0,.51,2.47,2.47,0,0,0,.51,2.89,2.56,2.56,0,0,0,1.34.7v11.89l4.92-4.82,4.92,4.82V502a2.56,2.56,0,0,0,1.34-.7,2.47,2.47,0,0,0,.51-2.89.64.64,0,0,1,0-.51.62.62,0,0,1,.37-.34,2.53,2.53,0,0,0,0-4.8"/></g><path class="cls-4" d="M233.4,515.4v-54h28.54v13.51h13.78V515.4Zm30.51-52.67,10.42,10.21H263.91Zm-.58-3.29h-31.9v57.89h46.26V473.51Z"/><g class="cls-2"><path class="cls-4" d="M241.27,475.84h8.86a1,1,0,1,0,0-1.93h-8.86a1,1,0,1,0,0,1.93"/><path class="cls-4" d="M241.27,483.56h4.92a1,1,0,1,0,0-1.93h-4.92a1,1,0,1,0,0,1.93"/><path class="cls-4" d="M256,483.56h6.9a1,1,0,1,0,0-1.93H256a1,1,0,1,0,0,1.93"/><path class="cls-4" d="M250.42,481.92a.9.9,0,0,0-.29.67,1,1,0,0,0,.29.69,1,1,0,0,0,.69.28,1,1,0,0,0,.7-1.65,1,1,0,0,0-1.39,0"/><path class="cls-4" d="M267.85,483.56a1,1,0,0,0,.69-.28,1,1,0,0,0,.29-.69,1,1,0,0,0-.29-.68,1,1,0,0,0-1.39,0,1,1,0,0,0-.29.68,1,1,0,0,0,.29.69,1,1,0,0,0,.7.28"/><path class="cls-4" d="M253.08,489.35h-6.89a1,1,0,1,0,0,1.93h6.89a1,1,0,1,0,0-1.93"/><path class="cls-4" d="M241.27,491.28a1.07,1.07,0,0,0,.7-.28,1,1,0,0,0,0-1.37,1,1,0,0,0-1.4,0,1,1,0,0,0-.28.69,1,1,0,0,0,.28.68,1.09,1.09,0,0,0,.7.28"/><path class="cls-4" d="M244.37,498.19c-2.16,1.1-2.88,3.21-3.15,5.39l-1.22-1c-1-.8-2.37.56-1.39,1.36l2.76,2.27a1,1,0,0,0,1.68-.68c.07-2.09.17-4.58,2.31-5.67,1.12-.57.13-2.24-1-1.67"/><path class="cls-4" d="M250.91,502c-1.36.31-2.91,2-3.87.11-.57-1.12-2.26-.14-1.7,1A3.39,3.39,0,0,0,248,505a3.51,3.51,0,0,0,1.67-.21c.4-.16,1.9-1.27,2.23-.7a1,1,0,0,0,1.7-1,2.36,2.36,0,0,0-2.65-1.06"/><path class="cls-4" d="M270.38,495.72a2.59,2.59,0,0,0-1.53,1.42,2.52,2.52,0,0,0,.06,2.08.58.58,0,0,1-.13.7.66.66,0,0,1-.55.16L268,500a2.29,2.29,0,0,0-.28-.09l-.2-.06-.3,0-.23,0a1.42,1.42,0,0,0-.29,0,1,1,0,0,0-.24,0,3.07,3.07,0,0,0-.52.14l-.12.07a3.13,3.13,0,0,0-.36.19,2.67,2.67,0,0,0-.36.31l0,0a2.55,2.55,0,0,0-.57.91.63.63,0,0,1-1.18,0,2.65,2.65,0,0,0-.57-.9l0,0a3.68,3.68,0,0,0-.38-.31,2.79,2.79,0,0,0-.34-.18l-.14-.08h-.06a2.44,2.44,0,0,0-.44-.13l-.36,0h-.14a2.32,2.32,0,0,0-1,.22l-.22.06a.62.62,0,0,1-.57-.16.57.57,0,0,1-.13-.7,2.49,2.49,0,0,0,.06-2.07,2.59,2.59,0,0,0-1.53-1.42.61.61,0,0,1,0-1.16,2.57,2.57,0,0,0,1.53-1.43,2.5,2.5,0,0,0-.06-2.07.58.58,0,0,1,.13-.7.61.61,0,0,1,.71-.12,2.63,2.63,0,0,0,2.11.05,2.57,2.57,0,0,0,1.46-1.5.63.63,0,0,1,1.18,0,2.58,2.58,0,0,0,1.45,1.5,2.65,2.65,0,0,0,2.12-.05.6.6,0,0,1,.71.12.59.59,0,0,1,.13.71,2.47,2.47,0,0,0-.06,2.06,2.57,2.57,0,0,0,1.53,1.43.61.61,0,0,1,0,1.16m-6.47,10.6-3,2.89v-7.48h0a.7.7,0,0,1,.31.15.53.53,0,0,1,.17.25,2.62,2.62,0,0,0,4.9,0,.53.53,0,0,1,.17-.25.4.4,0,0,1,.18-.11l.12,0h0v7.48ZM271,492.74a.62.62,0,0,1-.36-.85,2.47,2.47,0,0,0-.51-2.89,2.61,2.61,0,0,0-2.95-.5.64.64,0,0,1-.51,0,.61.61,0,0,1-.35-.36,2.62,2.62,0,0,0-4.9,0,.61.61,0,0,1-.35.36.64.64,0,0,1-.51,0,2.59,2.59,0,0,0-3,.5,2.47,2.47,0,0,0-.51,2.89.62.62,0,0,1-.36.85,2.53,2.53,0,0,0,0,4.8.62.62,0,0,1,.37.34.64.64,0,0,1,0,.51,2.47,2.47,0,0,0,.51,2.89,2.56,2.56,0,0,0,1.34.7v11.89l4.92-4.82,4.92,4.82V502a2.56,2.56,0,0,0,1.34-.7,2.47,2.47,0,0,0,.51-2.89.64.64,0,0,1,0-.51.62.62,0,0,1,.37-.34,2.53,2.53,0,0,0,0-4.8"/><line class="cls-57" x1="453.03" y1="448.55" x2="453.03" y2="456.15"/><path class="cls-8" d="M451.14,463.55a5.7,5.7,0,0,1-2.21,1.44"/><line class="cls-58" x1="440.63" y1="465.4" x2="290.14" y2="465.4"/><path class="cls-10" d="M287.3,465.4h0m159,0h0m6.72-6.72h0m0-15.2h0"/><polygon class="cls-4" points="453.03 439.07 458.7 445.18 447.35 445.18 453.03 439.07"/><path class="cls-5" d="M124.16,452.72s-7.2,0-7.2,7.2v7.24s0,7.2,7.2,7.2h6.72s7.2,0,7.2-7.2v-7.24s0-7.2-7.2-7.2Z"/><path class="cls-6" d="M127.54,461.1a2.33,2.33,0,1,0,2.31,2.35,2.35,2.35,0,0,0-2.31-2.35m-2.6,3.49a3.12,3.12,0,0,0-1.62.64c-.67.61-.73,1.26,0,1.85l.1.07a4.49,4.49,0,0,0,1.87.71,11.42,11.42,0,0,0,3,.19,9.21,9.21,0,0,0,2.55-.49,2.66,2.66,0,0,0,1.17-.78.89.89,0,0,0,.08-1.13,2.84,2.84,0,0,0-2-1.09l-.28.56c.21.07.36.11.5.17a8.18,8.18,0,0,1,1,.47c.33.19.32.48,0,.72,0,0,0,0-.07,0a3.84,3.84,0,0,0-1.79-.68.93.93,0,0,0-.61.08,2.74,2.74,0,0,1-2.65,0,1.09,1.09,0,0,0-.61-.11,4,4,0,0,0-1.7.59,1.54,1.54,0,0,1-.24.1c-.27-.31-.27-.52.06-.72a10.34,10.34,0,0,1,1.07-.49l.44-.17c-.12-.2-.21-.35-.31-.5m2.56,5.66c-.13,0-.26-.06-.38-.11l-6.3-2.36-.18-.08a.5.5,0,0,1-.25-.8c.15-.25.31-.49.47-.73l4.84-7.34c.41-.64.83-1.28,1.25-1.91s.77-.6,1.17,0l3,4.55,3,4.57c.17.25.34.51.49.76.25.41.18.71-.25.9-.58.25-1.18.46-1.77.68l-3.33,1.26-1.34.49c-.13.05-.28.07-.42.11"/><path class="cls-5" d="M127.69,363.13A12.13,12.13,0,1,0,115.55,351a12.13,12.13,0,0,0,12.14,12.13"/></g><polygon class="cls-6" points="130.19 351.4 135.4 347 130.19 342.6 129.33 343.59 132.6 346.35 123.15 346.35 123.15 347.65 132.6 347.65 129.33 350.41 130.19 351.4"/><rect class="cls-6" x="120.51" y="346.32" width="1.32" height="1.3"/><rect class="cls-6" x="117.86" y="346.35" width="1.32" height="1.3"/><rect class="cls-6" x="115.22" y="346.35" width="1.32" height="1.3"/><polygon class="cls-6" points="124.84 350.58 119.63 354.98 124.84 359.38 125.7 358.4 122.43 355.63 131.88 355.63 131.88 354.33 122.43 354.33 125.7 351.57 124.84 350.58"/><rect class="cls-6" x="133.21" y="354.36" width="1.32" height="1.3"/><rect class="cls-6" x="135.85" y="354.33" width="1.32" height="1.3"/><rect class="cls-6" x="138.5" y="354.33" width="1.32" height="1.3"/><g class="cls-2"><path class="cls-5" d="M230.06,474.36a12.13,12.13,0,1,0-12.13-12.13,12.14,12.14,0,0,0,12.13,12.13"/></g><path class="cls-6" d="M230.51,463.5v-8.45l4.27,7Zm-.9,0L225.35,462l4.26-7Zm.45,1.13,6.09-2.1-6.09-10-6.09,10Z"/><polygon class="cls-6" points="229.61 465.54 229.61 469.73 225.02 463.4 224.3 463.95 230.06 471.9 235.83 463.95 235.11 463.4 230.51 469.73 230.51 465.54 229.61 465.54"/><g class="cls-2"><path class="cls-5" d="M149.87,139.2a10.56,10.56,0,1,0-10.56-10.56,10.56,10.56,0,0,0,10.56,10.56"/></g><text class="cls-51" transform="translate(146.03 133.44)">6</text></svg>